<mxfile host="app.diagrams.net" modified="2023-05-25T07:53:35.133Z" agent="Mozilla/5.0 (Macintosh; Intel Mac OS X 10.15; rv:109.0) Gecko/20100101 Firefox/113.0" etag="jezzVv3jKYGW-bLSAzuC" version="21.3.3" type="github">
  <diagram id="C5RBs43oDa-KdzZeNtuy" name="Page-1">
    <mxGraphModel dx="1136" dy="917" grid="1" gridSize="10" guides="1" tooltips="1" connect="1" arrows="1" fold="1" page="1" pageScale="1" pageWidth="1600" pageHeight="1200" math="0" shadow="0">
      <root>
        <mxCell id="WIyWlLk6GJQsqaUBKTNV-0" />
        <mxCell id="WIyWlLk6GJQsqaUBKTNV-1" parent="WIyWlLk6GJQsqaUBKTNV-0" />
        <mxCell id="AqpP7Q0JJ1Dxonw_0Czb-62" value="" style="rounded=0;whiteSpace=wrap;html=1;dashed=1;" parent="WIyWlLk6GJQsqaUBKTNV-1" vertex="1">
          <mxGeometry x="1010" y="700" width="780" height="890" as="geometry" />
        </mxCell>
        <mxCell id="AqpP7Q0JJ1Dxonw_0Czb-63" style="edgeStyle=orthogonalEdgeStyle;rounded=0;orthogonalLoop=1;jettySize=auto;html=1;entryX=0.298;entryY=1.011;entryDx=0;entryDy=0;entryPerimeter=0;exitX=-0.005;exitY=0.492;exitDx=0;exitDy=0;exitPerimeter=0;" parent="WIyWlLk6GJQsqaUBKTNV-1" source="AqpP7Q0JJ1Dxonw_0Czb-62" target="AqpP7Q0JJ1Dxonw_0Czb-18" edge="1">
          <mxGeometry relative="1" as="geometry">
            <Array as="points">
              <mxPoint x="145" y="1138" />
            </Array>
          </mxGeometry>
        </mxCell>
        <mxCell id="AqpP7Q0JJ1Dxonw_0Czb-46" style="edgeStyle=orthogonalEdgeStyle;rounded=0;orthogonalLoop=1;jettySize=auto;html=1;" parent="WIyWlLk6GJQsqaUBKTNV-1" source="AqpP7Q0JJ1Dxonw_0Czb-44" target="AqpP7Q0JJ1Dxonw_0Czb-14" edge="1">
          <mxGeometry relative="1" as="geometry">
            <Array as="points">
              <mxPoint x="140" y="50" />
            </Array>
          </mxGeometry>
        </mxCell>
        <mxCell id="AqpP7Q0JJ1Dxonw_0Czb-44" value="" style="rounded=0;whiteSpace=wrap;html=1;dashed=1;" parent="WIyWlLk6GJQsqaUBKTNV-1" vertex="1">
          <mxGeometry x="1010" y="10" width="780" height="630" as="geometry" />
        </mxCell>
        <mxCell id="AqpP7Q0JJ1Dxonw_0Czb-13" style="edgeStyle=orthogonalEdgeStyle;rounded=0;orthogonalLoop=1;jettySize=auto;html=1;endSize=12;" parent="WIyWlLk6GJQsqaUBKTNV-1" source="AqpP7Q0JJ1Dxonw_0Czb-6" target="AqpP7Q0JJ1Dxonw_0Czb-0" edge="1">
          <mxGeometry relative="1" as="geometry">
            <Array as="points">
              <mxPoint x="730" y="550" />
              <mxPoint x="730" y="550" />
            </Array>
          </mxGeometry>
        </mxCell>
        <mxCell id="BDwg48UCZf6vMLDt1JuL-8" style="edgeStyle=orthogonalEdgeStyle;rounded=0;orthogonalLoop=1;jettySize=auto;html=1;entryX=0.483;entryY=1.003;entryDx=0;entryDy=0;entryPerimeter=0;endArrow=diamondThin;endFill=0;endSize=12;" edge="1" parent="WIyWlLk6GJQsqaUBKTNV-1" source="AqpP7Q0JJ1Dxonw_0Czb-6" target="AqpP7Q0JJ1Dxonw_0Czb-18">
          <mxGeometry relative="1" as="geometry">
            <Array as="points">
              <mxPoint x="223" y="690" />
            </Array>
          </mxGeometry>
        </mxCell>
        <mxCell id="AqpP7Q0JJ1Dxonw_0Czb-6" value="Car" style="swimlane;fontStyle=1;align=center;verticalAlign=top;childLayout=stackLayout;horizontal=1;startSize=26;horizontalStack=0;resizeParent=1;resizeParentMax=0;resizeLast=0;collapsible=1;marginBottom=0;whiteSpace=wrap;html=1;strokeWidth=1;" parent="WIyWlLk6GJQsqaUBKTNV-1" vertex="1">
          <mxGeometry x="535" y="610" width="390" height="286" as="geometry" />
        </mxCell>
        <mxCell id="AqpP7Q0JJ1Dxonw_0Czb-7" value="- engine: Engine" style="text;strokeColor=none;fillColor=none;align=left;verticalAlign=top;spacingLeft=4;spacingRight=4;overflow=hidden;rotatable=0;points=[[0,0.5],[1,0.5]];portConstraint=eastwest;whiteSpace=wrap;html=1;" parent="AqpP7Q0JJ1Dxonw_0Czb-6" vertex="1">
          <mxGeometry y="26" width="390" height="26" as="geometry" />
        </mxCell>
        <mxCell id="AqpP7Q0JJ1Dxonw_0Czb-12" value="- battery: Battery" style="text;strokeColor=none;fillColor=none;align=left;verticalAlign=top;spacingLeft=4;spacingRight=4;overflow=hidden;rotatable=0;points=[[0,0.5],[1,0.5]];portConstraint=eastwest;whiteSpace=wrap;html=1;" parent="AqpP7Q0JJ1Dxonw_0Czb-6" vertex="1">
          <mxGeometry y="52" width="390" height="26" as="geometry" />
        </mxCell>
        <mxCell id="AqpP7Q0JJ1Dxonw_0Czb-8" value="" style="line;strokeWidth=1;fillColor=none;align=left;verticalAlign=middle;spacingTop=-1;spacingLeft=3;spacingRight=3;rotatable=0;labelPosition=right;points=[];portConstraint=eastwest;strokeColor=inherit;" parent="AqpP7Q0JJ1Dxonw_0Czb-6" vertex="1">
          <mxGeometry y="78" width="390" height="8" as="geometry" />
        </mxCell>
        <mxCell id="AqpP7Q0JJ1Dxonw_0Czb-9" value="+ need_service(self)" style="text;strokeColor=none;fillColor=none;align=left;verticalAlign=top;spacingLeft=4;spacingRight=4;overflow=hidden;rotatable=0;points=[[0,0.5],[1,0.5]];portConstraint=eastwest;whiteSpace=wrap;html=1;" parent="AqpP7Q0JJ1Dxonw_0Czb-6" vertex="1">
          <mxGeometry y="86" width="390" height="26" as="geometry" />
        </mxCell>
        <mxCell id="AqpP7Q0JJ1Dxonw_0Czb-11" value="&lt;div style=&quot;color: rgb(144, 164, 174); background-color: rgb(250, 250, 250); font-family: Menlo, Monaco, &amp;quot;Courier New&amp;quot;, monospace; font-weight: normal; font-size: 12px; line-height: 18px;&quot;&gt;&lt;div&gt;from&lt;span style=&quot;color: #90a4ae;&quot;&gt; &lt;/span&gt;&lt;span style=&quot;color: #e2931d;&quot;&gt;car_service&lt;/span&gt;&lt;span style=&quot;color: #90a4ae;&quot;&gt; &lt;/span&gt;&lt;span style=&quot;color: #39adb5;font-style: italic;&quot;&gt;import&lt;/span&gt;&lt;span style=&quot;color: #90a4ae;&quot;&gt; &lt;/span&gt;&lt;span style=&quot;color: #e2931d;&quot;&gt;CarService&lt;/span&gt;&lt;/div&gt;&lt;br&gt;&lt;div&gt;&lt;span style=&quot;color: #9c3eda;&quot;&gt;class&lt;/span&gt;&lt;span style=&quot;color: #90a4ae;&quot;&gt; &lt;/span&gt;&lt;span style=&quot;color: #e2931d;&quot;&gt;Car&lt;/span&gt;&lt;span style=&quot;color: #39adb5;&quot;&gt;(&lt;/span&gt;&lt;span style=&quot;color: #e2931d;&quot;&gt;CarService&lt;/span&gt;&lt;span style=&quot;color: #39adb5;&quot;&gt;):&lt;/span&gt;&lt;/div&gt;&lt;div&gt;&lt;span style=&quot;color: #90a4ae;&quot;&gt;    &lt;/span&gt;&lt;span style=&quot;color: #9c3eda;&quot;&gt;def&lt;/span&gt;&lt;span style=&quot;color: #90a4ae;&quot;&gt; &lt;/span&gt;&lt;span style=&quot;color: #6182b8;&quot;&gt;__init__&lt;/span&gt;&lt;span style=&quot;color: #39adb5;&quot;&gt;(&lt;/span&gt;&lt;span style=&quot;color: #e53935;font-style: italic;&quot;&gt;self&lt;/span&gt;&lt;span style=&quot;color: #39adb5;&quot;&gt;,&lt;/span&gt;&lt;span style=&quot;color: #90a4ae;&quot;&gt; &lt;/span&gt;&lt;span style=&quot;color: #90a4ae;font-style: italic;&quot;&gt;engine&lt;/span&gt;&lt;span style=&quot;color: #39adb5;&quot;&gt;,&lt;/span&gt;&lt;span style=&quot;color: #90a4ae;&quot;&gt; &lt;/span&gt;&lt;span style=&quot;color: #90a4ae;font-style: italic;&quot;&gt;battery&lt;/span&gt;&lt;span style=&quot;color: #39adb5;&quot;&gt;)&lt;/span&gt;&lt;span style=&quot;color: #90a4ae;&quot;&gt; &lt;/span&gt;&lt;span style=&quot;color: #39adb5;&quot;&gt;-&amp;gt;&lt;/span&gt;&lt;span style=&quot;color: #90a4ae;&quot;&gt; &lt;/span&gt;&lt;span style=&quot;color: #39adb5;&quot;&gt;None&lt;/span&gt;&lt;span style=&quot;color: #39adb5;&quot;&gt;:&lt;/span&gt;&lt;/div&gt;&lt;div&gt;&lt;span style=&quot;color: #90a4ae;&quot;&gt;        &lt;/span&gt;&lt;/div&gt;&lt;div&gt;&lt;span style=&quot;color: #90a4ae;&quot;&gt;        &lt;/span&gt;&lt;span style=&quot;color: #e53935;font-style: italic;&quot;&gt;self&lt;/span&gt;&lt;span style=&quot;color: #39adb5;&quot;&gt;.&lt;/span&gt;&lt;span style=&quot;color: #90a4ae;&quot;&gt;engine&lt;/span&gt;&lt;span style=&quot;color: #90a4ae;&quot;&gt; &lt;/span&gt;&lt;span style=&quot;color: #39adb5;&quot;&gt;=&lt;/span&gt;&lt;span style=&quot;color: #90a4ae;&quot;&gt; &lt;/span&gt;&lt;span style=&quot;color: #90a4ae;font-style: italic;&quot;&gt;engine&lt;/span&gt;&lt;/div&gt;&lt;div&gt;&lt;span style=&quot;color: #90a4ae;&quot;&gt;        &lt;/span&gt;&lt;span style=&quot;color: #e53935;font-style: italic;&quot;&gt;self&lt;/span&gt;&lt;span style=&quot;color: #39adb5;&quot;&gt;.&lt;/span&gt;&lt;span style=&quot;color: #90a4ae;&quot;&gt;battery&lt;/span&gt;&lt;span style=&quot;color: #90a4ae;&quot;&gt; &lt;/span&gt;&lt;span style=&quot;color: #39adb5;&quot;&gt;=&lt;/span&gt;&lt;span style=&quot;color: #90a4ae;&quot;&gt; &lt;/span&gt;&lt;span style=&quot;color: #90a4ae;font-style: italic;&quot;&gt;battery&lt;/span&gt;&lt;/div&gt;&lt;div&gt;&lt;span style=&quot;color: #90a4ae;&quot;&gt;    &lt;/span&gt;&lt;/div&gt;&lt;div&gt;&lt;span style=&quot;color: #90a4ae;&quot;&gt;    &lt;/span&gt;&lt;span style=&quot;color: #9c3eda;&quot;&gt;def&lt;/span&gt;&lt;span style=&quot;color: #90a4ae;&quot;&gt; &lt;/span&gt;&lt;span style=&quot;color: #6182b8;&quot;&gt;need_service&lt;/span&gt;&lt;span style=&quot;color: #39adb5;&quot;&gt;(&lt;/span&gt;&lt;span style=&quot;color: #e53935;font-style: italic;&quot;&gt;self&lt;/span&gt;&lt;span style=&quot;color: #39adb5;&quot;&gt;)&lt;/span&gt;&lt;span style=&quot;color: #90a4ae;&quot;&gt; &lt;/span&gt;&lt;span style=&quot;color: #39adb5;&quot;&gt;-&amp;gt;&lt;/span&gt;&lt;span style=&quot;color: #90a4ae;&quot;&gt; &lt;/span&gt;&lt;span style=&quot;color: #e2931d;&quot;&gt;bool&lt;/span&gt;&lt;span style=&quot;color: #39adb5;&quot;&gt;:&lt;/span&gt;&lt;/div&gt;&lt;div&gt;&lt;span style=&quot;color: #90a4ae;&quot;&gt;        &lt;/span&gt;&lt;span style=&quot;color: #39adb5;font-style: italic;&quot;&gt;return&lt;/span&gt;&lt;span style=&quot;color: #90a4ae;&quot;&gt; &lt;/span&gt;&lt;span style=&quot;color: #e53935;font-style: italic;&quot;&gt;self&lt;/span&gt;&lt;span style=&quot;color: #39adb5;&quot;&gt;.&lt;/span&gt;&lt;span style=&quot;color: #90a4ae;&quot;&gt;engine&lt;/span&gt;&lt;span style=&quot;color: #39adb5;&quot;&gt;.&lt;/span&gt;&lt;span style=&quot;color: #6182b8;&quot;&gt;need_service&lt;/span&gt;&lt;span style=&quot;color: #39adb5;&quot;&gt;()&lt;/span&gt;&lt;span style=&quot;color: #90a4ae;&quot;&gt; &lt;/span&gt;&lt;span style=&quot;color: #39adb5;&quot;&gt;or&lt;/span&gt;&lt;span style=&quot;color: #90a4ae;&quot;&gt; &lt;/span&gt;&lt;span style=&quot;color: #e53935;font-style: italic;&quot;&gt;self&lt;/span&gt;&lt;span style=&quot;color: #39adb5;&quot;&gt;.&lt;/span&gt;&lt;span style=&quot;color: #90a4ae;&quot;&gt;battery&lt;/span&gt;&lt;span style=&quot;color: #39adb5;&quot;&gt;.&lt;/span&gt;&lt;span style=&quot;color: #6182b8;&quot;&gt;need_service&lt;/span&gt;&lt;span style=&quot;color: #39adb5;&quot;&gt;()&lt;/span&gt;&lt;/div&gt;&lt;/div&gt;" style="text;strokeColor=none;fillColor=none;align=left;verticalAlign=top;spacingLeft=4;spacingRight=4;overflow=hidden;rotatable=0;points=[[0,0.5],[1,0.5]];portConstraint=eastwest;whiteSpace=wrap;html=1;" parent="AqpP7Q0JJ1Dxonw_0Czb-6" vertex="1">
          <mxGeometry y="112" width="390" height="174" as="geometry" />
        </mxCell>
        <mxCell id="AqpP7Q0JJ1Dxonw_0Czb-14" value="CarFactory" style="swimlane;fontStyle=1;align=center;verticalAlign=top;childLayout=stackLayout;horizontal=1;startSize=26;horizontalStack=0;resizeParent=1;resizeParentMax=0;resizeLast=0;collapsible=1;marginBottom=0;whiteSpace=wrap;html=1;" parent="WIyWlLk6GJQsqaUBKTNV-1" vertex="1">
          <mxGeometry x="20" y="110" width="420" height="460" as="geometry" />
        </mxCell>
        <mxCell id="AqpP7Q0JJ1Dxonw_0Czb-15" value="+ field: depending on a car" style="text;strokeColor=none;fillColor=none;align=left;verticalAlign=top;spacingLeft=4;spacingRight=4;overflow=hidden;rotatable=0;points=[[0,0.5],[1,0.5]];portConstraint=eastwest;whiteSpace=wrap;html=1;" parent="AqpP7Q0JJ1Dxonw_0Czb-14" vertex="1">
          <mxGeometry y="26" width="420" height="26" as="geometry" />
        </mxCell>
        <mxCell id="AqpP7Q0JJ1Dxonw_0Czb-16" value="" style="line;strokeWidth=1;fillColor=none;align=left;verticalAlign=middle;spacingTop=-1;spacingLeft=3;spacingRight=3;rotatable=0;labelPosition=right;points=[];portConstraint=eastwest;strokeColor=inherit;" parent="AqpP7Q0JJ1Dxonw_0Czb-14" vertex="1">
          <mxGeometry y="52" width="420" height="8" as="geometry" />
        </mxCell>
        <mxCell id="AqpP7Q0JJ1Dxonw_0Czb-17" value="+ create_car1(arg1, arg2, ...) -&amp;gt; car" style="text;strokeColor=none;fillColor=none;align=left;verticalAlign=top;spacingLeft=4;spacingRight=4;overflow=hidden;rotatable=0;points=[[0,0.5],[1,0.5]];portConstraint=eastwest;whiteSpace=wrap;html=1;" parent="AqpP7Q0JJ1Dxonw_0Czb-14" vertex="1">
          <mxGeometry y="60" width="420" height="26" as="geometry" />
        </mxCell>
        <mxCell id="AqpP7Q0JJ1Dxonw_0Czb-18" value="&lt;div style=&quot;color: rgb(144, 164, 174); background-color: rgb(250, 250, 250); font-family: Menlo, Monaco, &amp;quot;Courier New&amp;quot;, monospace; font-weight: normal; font-size: 12px; line-height: 18px;&quot;&gt;&lt;div&gt;from&lt;span style=&quot;color: #90a4ae;&quot;&gt; &lt;/span&gt;&lt;span style=&quot;color: #e2931d;&quot;&gt;batteries&lt;/span&gt;&lt;span style=&quot;color: #39adb5;&quot;&gt;.&lt;/span&gt;&lt;span style=&quot;color: #e2931d;&quot;&gt;nubbin_battery&lt;/span&gt;&lt;span style=&quot;color: #90a4ae;&quot;&gt; &lt;/span&gt;&lt;span style=&quot;color: #39adb5;font-style: italic;&quot;&gt;import&lt;/span&gt;&lt;span style=&quot;color: #90a4ae;&quot;&gt; &lt;/span&gt;&lt;span style=&quot;color: #e2931d;&quot;&gt;NubbinBattery&lt;/span&gt;&lt;/div&gt;&lt;div&gt;&lt;span style=&quot;color: #39adb5;font-style: italic;&quot;&gt;from&lt;/span&gt;&lt;span style=&quot;color: #90a4ae;&quot;&gt; &lt;/span&gt;&lt;span style=&quot;color: #e2931d;&quot;&gt;batteries&lt;/span&gt;&lt;span style=&quot;color: #39adb5;&quot;&gt;.&lt;/span&gt;&lt;span style=&quot;color: #e2931d;&quot;&gt;spindler_battery&lt;/span&gt;&lt;span style=&quot;color: #90a4ae;&quot;&gt; &lt;/span&gt;&lt;span style=&quot;color: #39adb5;font-style: italic;&quot;&gt;import&lt;/span&gt;&lt;span style=&quot;color: #90a4ae;&quot;&gt; &lt;/span&gt;&lt;span style=&quot;color: #e2931d;&quot;&gt;SpindlerBattery&lt;/span&gt;&lt;/div&gt;&lt;br&gt;&lt;div&gt;&lt;span style=&quot;color: #39adb5;font-style: italic;&quot;&gt;from&lt;/span&gt;&lt;span style=&quot;color: #90a4ae;&quot;&gt; &lt;/span&gt;&lt;span style=&quot;color: #e2931d;&quot;&gt;engines&lt;/span&gt;&lt;span style=&quot;color: #39adb5;&quot;&gt;.&lt;/span&gt;&lt;span style=&quot;color: #e2931d;&quot;&gt;capulet_engine&lt;/span&gt;&lt;span style=&quot;color: #90a4ae;&quot;&gt; &lt;/span&gt;&lt;span style=&quot;color: #39adb5;font-style: italic;&quot;&gt;import&lt;/span&gt;&lt;span style=&quot;color: #90a4ae;&quot;&gt; &lt;/span&gt;&lt;span style=&quot;color: #e2931d;&quot;&gt;CapuletEngine&lt;/span&gt;&lt;/div&gt;&lt;div&gt;&lt;span style=&quot;color: #39adb5;font-style: italic;&quot;&gt;from&lt;/span&gt;&lt;span style=&quot;color: #90a4ae;&quot;&gt; &lt;/span&gt;&lt;span style=&quot;color: #e2931d;&quot;&gt;engines&lt;/span&gt;&lt;span style=&quot;color: #39adb5;&quot;&gt;.&lt;/span&gt;&lt;span style=&quot;color: #e2931d;&quot;&gt;sternman_engine&lt;/span&gt;&lt;span style=&quot;color: #90a4ae;&quot;&gt; &lt;/span&gt;&lt;span style=&quot;color: #39adb5;font-style: italic;&quot;&gt;import&lt;/span&gt;&lt;span style=&quot;color: #90a4ae;&quot;&gt; &lt;/span&gt;&lt;span style=&quot;color: #e2931d;&quot;&gt;SternmanEngine&lt;/span&gt;&lt;/div&gt;&lt;div&gt;&lt;span style=&quot;color: #39adb5;font-style: italic;&quot;&gt;from&lt;/span&gt;&lt;span style=&quot;color: #90a4ae;&quot;&gt; &lt;/span&gt;&lt;span style=&quot;color: #e2931d;&quot;&gt;engines&lt;/span&gt;&lt;span style=&quot;color: #39adb5;&quot;&gt;.&lt;/span&gt;&lt;span style=&quot;color: #e2931d;&quot;&gt;willoughby_engine&lt;/span&gt;&lt;span style=&quot;color: #90a4ae;&quot;&gt; &lt;/span&gt;&lt;span style=&quot;color: #39adb5;font-style: italic;&quot;&gt;import&lt;/span&gt;&lt;span style=&quot;color: #90a4ae;&quot;&gt; &lt;/span&gt;&lt;span style=&quot;color: #e2931d;&quot;&gt;WilloughbyEngine&lt;/span&gt;&lt;/div&gt;&lt;br&gt;&lt;div&gt;&lt;span style=&quot;color: #39adb5;font-style: italic;&quot;&gt;from&lt;/span&gt;&lt;span style=&quot;color: #90a4ae;&quot;&gt; &lt;/span&gt;&lt;span style=&quot;color: #e2931d;&quot;&gt;car&lt;/span&gt;&lt;span style=&quot;color: #90a4ae;&quot;&gt; &lt;/span&gt;&lt;span style=&quot;color: #39adb5;font-style: italic;&quot;&gt;import&lt;/span&gt;&lt;span style=&quot;color: #90a4ae;&quot;&gt; &lt;/span&gt;&lt;span style=&quot;color: #e2931d;&quot;&gt;Car&lt;/span&gt;&lt;/div&gt;&lt;br&gt;&lt;div&gt;&lt;span style=&quot;color: #9c3eda;&quot;&gt;class&lt;/span&gt;&lt;span style=&quot;color: #90a4ae;&quot;&gt; &lt;/span&gt;&lt;span style=&quot;color: #e2931d;&quot;&gt;CarFactory&lt;/span&gt;&lt;span style=&quot;color: #39adb5;&quot;&gt;:&lt;/span&gt;&lt;/div&gt;&lt;div&gt;&lt;span style=&quot;color: #90a4ae;&quot;&gt;    &lt;/span&gt;&lt;span style=&quot;color: #39adb5;&quot;&gt;@&lt;/span&gt;&lt;span style=&quot;color: #e2931d;&quot;&gt;staticmethod&lt;/span&gt;&lt;/div&gt;&lt;div&gt;&lt;span style=&quot;color: #90a4ae;&quot;&gt;    &lt;/span&gt;&lt;span style=&quot;color: #9c3eda;&quot;&gt;def&lt;/span&gt;&lt;span style=&quot;color: #90a4ae;&quot;&gt; &lt;/span&gt;&lt;span style=&quot;color: #6182b8;&quot;&gt;create_calliope&lt;/span&gt;&lt;span style=&quot;color: #39adb5;&quot;&gt;(&lt;/span&gt;&lt;span style=&quot;color: #90a4ae;font-style: italic;&quot;&gt;current_date&lt;/span&gt;&lt;span style=&quot;color: #39adb5;&quot;&gt;,&lt;/span&gt;&lt;span style=&quot;color: #90a4ae;&quot;&gt; &lt;/span&gt;&lt;span style=&quot;color: #90a4ae;font-style: italic;&quot;&gt;last_service_date&lt;/span&gt;&lt;span style=&quot;color: #39adb5;&quot;&gt;,&lt;/span&gt;&lt;span style=&quot;color: #90a4ae;&quot;&gt; &lt;/span&gt;&lt;span style=&quot;color: #90a4ae;font-style: italic;&quot;&gt;current_mileage&lt;/span&gt;&lt;span style=&quot;color: #39adb5;&quot;&gt;,&lt;/span&gt;&lt;span style=&quot;color: #90a4ae;&quot;&gt; &lt;/span&gt;&lt;span style=&quot;color: #90a4ae;font-style: italic;&quot;&gt;last_service_mileage&lt;/span&gt;&lt;span style=&quot;color: #39adb5;&quot;&gt;)&lt;/span&gt;&lt;span style=&quot;color: #90a4ae;&quot;&gt; &lt;/span&gt;&lt;span style=&quot;color: #39adb5;&quot;&gt;-&amp;gt;&lt;/span&gt;&lt;span style=&quot;color: #90a4ae;&quot;&gt; &lt;/span&gt;&lt;span style=&quot;color: #e2931d;&quot;&gt;Car&lt;/span&gt;&lt;span style=&quot;color: #39adb5;&quot;&gt;:&lt;/span&gt;&lt;/div&gt;&lt;div&gt;&lt;span style=&quot;color: #90a4ae;&quot;&gt;        &lt;/span&gt;&lt;span style=&quot;color: #90a4ae;&quot;&gt;engine&lt;/span&gt;&lt;span style=&quot;color: #90a4ae;&quot;&gt; &lt;/span&gt;&lt;span style=&quot;color: #39adb5;&quot;&gt;=&lt;/span&gt;&lt;span style=&quot;color: #90a4ae;&quot;&gt; &lt;/span&gt;&lt;span style=&quot;color: #e2931d;&quot;&gt;CapuletEngine&lt;/span&gt;&lt;span style=&quot;color: #39adb5;&quot;&gt;(&lt;/span&gt;&lt;span style=&quot;color: #90a4ae;font-style: italic;&quot;&gt;current_mileage&lt;/span&gt;&lt;span style=&quot;color: #39adb5;&quot;&gt;,&lt;/span&gt;&lt;span style=&quot;color: #6182b8;&quot;&gt; &lt;/span&gt;&lt;span style=&quot;color: #90a4ae;font-style: italic;&quot;&gt;last_service_mileage&lt;/span&gt;&lt;span style=&quot;color: #39adb5;&quot;&gt;)&lt;/span&gt;&lt;/div&gt;&lt;div&gt;&lt;span style=&quot;color: #90a4ae;&quot;&gt;        &lt;/span&gt;&lt;span style=&quot;color: #90a4ae;&quot;&gt;battery&lt;/span&gt;&lt;span style=&quot;color: #90a4ae;&quot;&gt; &lt;/span&gt;&lt;span style=&quot;color: #39adb5;&quot;&gt;=&lt;/span&gt;&lt;span style=&quot;color: #90a4ae;&quot;&gt; &lt;/span&gt;&lt;span style=&quot;color: #e2931d;&quot;&gt;SpindlerBattery&lt;/span&gt;&lt;span style=&quot;color: #39adb5;&quot;&gt;(&lt;/span&gt;&lt;span style=&quot;color: #90a4ae;font-style: italic;&quot;&gt;current_date&lt;/span&gt;&lt;span style=&quot;color: #39adb5;&quot;&gt;,&lt;/span&gt;&lt;span style=&quot;color: #6182b8;&quot;&gt; &lt;/span&gt;&lt;span style=&quot;color: #90a4ae;font-style: italic;&quot;&gt;last_service_date&lt;/span&gt;&lt;span style=&quot;color: #39adb5;&quot;&gt;)&lt;/span&gt;&lt;/div&gt;&lt;div&gt;&lt;span style=&quot;color: #90a4ae;&quot;&gt;        &lt;/span&gt;&lt;b&gt;&lt;u&gt;&lt;span style=&quot;color: #90a4ae;&quot;&gt;car&lt;/span&gt;&lt;span style=&quot;color: #90a4ae;&quot;&gt; &lt;/span&gt;&lt;span style=&quot;color: #39adb5;&quot;&gt;=&lt;/span&gt;&lt;span style=&quot;color: #90a4ae;&quot;&gt; &lt;/span&gt;&lt;span style=&quot;color: #e2931d;&quot;&gt;Car&lt;/span&gt;&lt;span style=&quot;color: #39adb5;&quot;&gt;(&lt;/span&gt;&lt;span style=&quot;color: #90a4ae;&quot;&gt;engine&lt;/span&gt;&lt;span style=&quot;color: #39adb5;&quot;&gt;,&lt;/span&gt;&lt;span style=&quot;color: #6182b8;&quot;&gt; &lt;/span&gt;&lt;span style=&quot;color: #90a4ae;&quot;&gt;battery&lt;/span&gt;&lt;span style=&quot;color: #39adb5;&quot;&gt;)&lt;/span&gt;&lt;/u&gt;&lt;/b&gt;&lt;/div&gt;&lt;div&gt;&lt;span style=&quot;color: #90a4ae;&quot;&gt;        &lt;/span&gt;&lt;span style=&quot;color: #39adb5;font-style: italic;&quot;&gt;return&lt;/span&gt;&lt;span style=&quot;color: #90a4ae;&quot;&gt; &lt;/span&gt;&lt;span style=&quot;color: #90a4ae;&quot;&gt;car&lt;/span&gt;&lt;/div&gt;&lt;div&gt;&lt;span style=&quot;color: #90a4ae;&quot;&gt;...&lt;br&gt;&lt;/span&gt;&lt;/div&gt;&lt;/div&gt;" style="text;strokeColor=none;fillColor=none;align=left;verticalAlign=top;spacingLeft=4;spacingRight=4;overflow=hidden;rotatable=0;points=[[0,0.5],[1,0.5]];portConstraint=eastwest;whiteSpace=wrap;html=1;" parent="AqpP7Q0JJ1Dxonw_0Czb-14" vertex="1">
          <mxGeometry y="86" width="420" height="374" as="geometry" />
        </mxCell>
        <mxCell id="AqpP7Q0JJ1Dxonw_0Czb-20" value="Battery" style="swimlane;fontStyle=1;align=center;verticalAlign=top;childLayout=stackLayout;horizontal=1;startSize=26;horizontalStack=0;resizeParent=1;resizeParentMax=0;resizeLast=0;collapsible=1;marginBottom=0;whiteSpace=wrap;html=1;strokeWidth=2;" parent="WIyWlLk6GJQsqaUBKTNV-1" vertex="1">
          <mxGeometry x="1020" y="240" width="300" height="180" as="geometry" />
        </mxCell>
        <mxCell id="AqpP7Q0JJ1Dxonw_0Czb-22" value="" style="line;strokeWidth=1;fillColor=none;align=left;verticalAlign=middle;spacingTop=-1;spacingLeft=3;spacingRight=3;rotatable=0;labelPosition=right;points=[];portConstraint=eastwest;strokeColor=inherit;" parent="AqpP7Q0JJ1Dxonw_0Czb-20" vertex="1">
          <mxGeometry y="26" width="300" height="8" as="geometry" />
        </mxCell>
        <mxCell id="AqpP7Q0JJ1Dxonw_0Czb-23" value="+ need_service(self)" style="text;strokeColor=none;fillColor=none;align=left;verticalAlign=top;spacingLeft=4;spacingRight=4;overflow=hidden;rotatable=0;points=[[0,0.5],[1,0.5]];portConstraint=eastwest;whiteSpace=wrap;html=1;" parent="AqpP7Q0JJ1Dxonw_0Czb-20" vertex="1">
          <mxGeometry y="34" width="300" height="26" as="geometry" />
        </mxCell>
        <mxCell id="AqpP7Q0JJ1Dxonw_0Czb-27" value="&lt;div style=&quot;color: rgb(144, 164, 174); background-color: rgb(250, 250, 250); font-family: Menlo, Monaco, &amp;quot;Courier New&amp;quot;, monospace; font-weight: normal; font-size: 12px; line-height: 18px;&quot;&gt;&lt;div&gt;from&lt;span style=&quot;color: #90a4ae;&quot;&gt; &lt;/span&gt;&lt;span style=&quot;color: #e2931d;&quot;&gt;abc&lt;/span&gt;&lt;span style=&quot;color: #90a4ae;&quot;&gt; &lt;/span&gt;&lt;span style=&quot;color: #39adb5;font-style: italic;&quot;&gt;import&lt;/span&gt;&lt;span style=&quot;color: #90a4ae;&quot;&gt; &lt;/span&gt;&lt;span style=&quot;color: #e2931d;&quot;&gt;ABC&lt;/span&gt;&lt;span style=&quot;color: #39adb5;&quot;&gt;,&lt;/span&gt;&lt;span style=&quot;color: #90a4ae;&quot;&gt; &lt;/span&gt;&lt;span style=&quot;color: #e2931d;&quot;&gt;abstractclassmethod&lt;/span&gt;&lt;/div&gt;&lt;br&gt;&lt;div&gt;&lt;span style=&quot;color: #9c3eda;&quot;&gt;class&lt;/span&gt;&lt;span style=&quot;color: #90a4ae;&quot;&gt; &lt;/span&gt;&lt;span style=&quot;color: #e2931d;&quot;&gt;Engine&lt;/span&gt;&lt;span style=&quot;color: #39adb5;&quot;&gt;(&lt;/span&gt;&lt;span style=&quot;color: #e2931d;&quot;&gt;ABC&lt;/span&gt;&lt;span style=&quot;color: #39adb5;&quot;&gt;):&lt;/span&gt;&lt;/div&gt;&lt;div&gt;&lt;span style=&quot;color: #90a4ae;&quot;&gt;    &lt;/span&gt;&lt;/div&gt;&lt;div&gt;&lt;span style=&quot;color: #90a4ae;&quot;&gt;    &lt;/span&gt;&lt;span style=&quot;color: #39adb5;&quot;&gt;@&lt;/span&gt;&lt;span style=&quot;color: #e2931d;&quot;&gt;abstractclassmethod&lt;/span&gt;&lt;/div&gt;&lt;div&gt;&lt;span style=&quot;color: #90a4ae;&quot;&gt;    &lt;/span&gt;&lt;span style=&quot;color: #9c3eda;&quot;&gt;def&lt;/span&gt;&lt;span style=&quot;color: #90a4ae;&quot;&gt; &lt;/span&gt;&lt;span style=&quot;color: #6182b8;&quot;&gt;need_service&lt;/span&gt;&lt;span style=&quot;color: #39adb5;&quot;&gt;(&lt;/span&gt;&lt;span style=&quot;color: #e53935;font-style: italic;&quot;&gt;self&lt;/span&gt;&lt;span style=&quot;color: #39adb5;&quot;&gt;):&lt;/span&gt;&lt;/div&gt;&lt;div&gt;&lt;span style=&quot;color: #90a4ae;&quot;&gt;        &lt;/span&gt;&lt;span style=&quot;color: #39adb5;font-style: italic;&quot;&gt;pass&lt;/span&gt;&lt;/div&gt;&lt;/div&gt;" style="text;strokeColor=none;fillColor=none;align=left;verticalAlign=top;spacingLeft=4;spacingRight=4;overflow=hidden;rotatable=0;points=[[0,0.5],[1,0.5]];portConstraint=eastwest;whiteSpace=wrap;html=1;" parent="AqpP7Q0JJ1Dxonw_0Czb-20" vertex="1">
          <mxGeometry y="60" width="300" height="120" as="geometry" />
        </mxCell>
        <mxCell id="AqpP7Q0JJ1Dxonw_0Czb-24" value="Engine" style="swimlane;fontStyle=1;align=center;verticalAlign=top;childLayout=stackLayout;horizontal=1;startSize=26;horizontalStack=0;resizeParent=1;resizeParentMax=0;resizeLast=0;collapsible=1;marginBottom=0;whiteSpace=wrap;html=1;strokeWidth=2;" parent="WIyWlLk6GJQsqaUBKTNV-1" vertex="1">
          <mxGeometry x="1020" y="820" width="300" height="180" as="geometry" />
        </mxCell>
        <mxCell id="AqpP7Q0JJ1Dxonw_0Czb-25" value="" style="line;strokeWidth=1;fillColor=none;align=left;verticalAlign=middle;spacingTop=-1;spacingLeft=3;spacingRight=3;rotatable=0;labelPosition=right;points=[];portConstraint=eastwest;strokeColor=inherit;" parent="AqpP7Q0JJ1Dxonw_0Czb-24" vertex="1">
          <mxGeometry y="26" width="300" height="8" as="geometry" />
        </mxCell>
        <mxCell id="AqpP7Q0JJ1Dxonw_0Czb-26" value="+ need_service(self)" style="text;strokeColor=none;fillColor=none;align=left;verticalAlign=top;spacingLeft=4;spacingRight=4;overflow=hidden;rotatable=0;points=[[0,0.5],[1,0.5]];portConstraint=eastwest;whiteSpace=wrap;html=1;" parent="AqpP7Q0JJ1Dxonw_0Czb-24" vertex="1">
          <mxGeometry y="34" width="300" height="26" as="geometry" />
        </mxCell>
        <mxCell id="AqpP7Q0JJ1Dxonw_0Czb-28" value="&lt;div style=&quot;color: rgb(144, 164, 174); background-color: rgb(250, 250, 250); font-family: Menlo, Monaco, &amp;quot;Courier New&amp;quot;, monospace; font-weight: normal; font-size: 12px; line-height: 18px;&quot;&gt;&lt;div&gt;from&lt;span style=&quot;color: #90a4ae;&quot;&gt; &lt;/span&gt;&lt;span style=&quot;color: #e2931d;&quot;&gt;abc&lt;/span&gt;&lt;span style=&quot;color: #90a4ae;&quot;&gt; &lt;/span&gt;&lt;span style=&quot;color: #39adb5;font-style: italic;&quot;&gt;import&lt;/span&gt;&lt;span style=&quot;color: #90a4ae;&quot;&gt; &lt;/span&gt;&lt;span style=&quot;color: #e2931d;&quot;&gt;ABC&lt;/span&gt;&lt;span style=&quot;color: #39adb5;&quot;&gt;,&lt;/span&gt;&lt;span style=&quot;color: #90a4ae;&quot;&gt; &lt;/span&gt;&lt;span style=&quot;color: #e2931d;&quot;&gt;abstractclassmethod&lt;/span&gt;&lt;/div&gt;&lt;br&gt;&lt;div&gt;&lt;span style=&quot;color: #9c3eda;&quot;&gt;class&lt;/span&gt;&lt;span style=&quot;color: #90a4ae;&quot;&gt; &lt;/span&gt;&lt;span style=&quot;color: #e2931d;&quot;&gt;Battery&lt;/span&gt;&lt;span style=&quot;color: #39adb5;&quot;&gt;(&lt;/span&gt;&lt;span style=&quot;color: #e2931d;&quot;&gt;ABC&lt;/span&gt;&lt;span style=&quot;color: #39adb5;&quot;&gt;):&lt;/span&gt;&lt;/div&gt;&lt;div&gt;&lt;span style=&quot;color: #90a4ae;&quot;&gt;    &lt;/span&gt;&lt;/div&gt;&lt;div&gt;&lt;span style=&quot;color: #90a4ae;&quot;&gt;    &lt;/span&gt;&lt;span style=&quot;color: #39adb5;&quot;&gt;@&lt;/span&gt;&lt;span style=&quot;color: #e2931d;&quot;&gt;abstractclassmethod&lt;/span&gt;&lt;/div&gt;&lt;div&gt;&lt;span style=&quot;color: #90a4ae;&quot;&gt;    &lt;/span&gt;&lt;span style=&quot;color: #9c3eda;&quot;&gt;def&lt;/span&gt;&lt;span style=&quot;color: #90a4ae;&quot;&gt; &lt;/span&gt;&lt;span style=&quot;color: #6182b8;&quot;&gt;need_service&lt;/span&gt;&lt;span style=&quot;color: #39adb5;&quot;&gt;(&lt;/span&gt;&lt;span style=&quot;color: #e53935;font-style: italic;&quot;&gt;self&lt;/span&gt;&lt;span style=&quot;color: #39adb5;&quot;&gt;):&lt;/span&gt;&lt;/div&gt;&lt;div&gt;&lt;span style=&quot;color: #90a4ae;&quot;&gt;        &lt;/span&gt;&lt;span style=&quot;color: #39adb5;font-style: italic;&quot;&gt;pass&lt;/span&gt;&lt;/div&gt;&lt;/div&gt;" style="text;strokeColor=none;fillColor=none;align=left;verticalAlign=top;spacingLeft=4;spacingRight=4;overflow=hidden;rotatable=0;points=[[0,0.5],[1,0.5]];portConstraint=eastwest;whiteSpace=wrap;html=1;" parent="AqpP7Q0JJ1Dxonw_0Czb-24" vertex="1">
          <mxGeometry y="60" width="300" height="120" as="geometry" />
        </mxCell>
        <mxCell id="AqpP7Q0JJ1Dxonw_0Czb-29" value="NubbinBattery" style="swimlane;fontStyle=1;align=center;verticalAlign=top;childLayout=stackLayout;horizontal=1;startSize=26;horizontalStack=0;resizeParent=1;resizeParentMax=0;resizeLast=0;collapsible=1;marginBottom=0;whiteSpace=wrap;html=1;" parent="WIyWlLk6GJQsqaUBKTNV-1" vertex="1">
          <mxGeometry x="1400" y="20" width="380" height="290" as="geometry" />
        </mxCell>
        <mxCell id="AqpP7Q0JJ1Dxonw_0Czb-30" value="current_date&lt;span style=&quot;color: #39adb5;&quot;&gt;&lt;/span&gt;" style="text;strokeColor=none;fillColor=none;align=left;verticalAlign=top;spacingLeft=4;spacingRight=4;overflow=hidden;rotatable=0;points=[[0,0.5],[1,0.5]];portConstraint=eastwest;whiteSpace=wrap;html=1;" parent="AqpP7Q0JJ1Dxonw_0Czb-29" vertex="1">
          <mxGeometry y="26" width="380" height="26" as="geometry" />
        </mxCell>
        <mxCell id="AqpP7Q0JJ1Dxonw_0Czb-33" value="last_service_date" style="text;strokeColor=none;fillColor=none;align=left;verticalAlign=top;spacingLeft=4;spacingRight=4;overflow=hidden;rotatable=0;points=[[0,0.5],[1,0.5]];portConstraint=eastwest;whiteSpace=wrap;html=1;" parent="AqpP7Q0JJ1Dxonw_0Czb-29" vertex="1">
          <mxGeometry y="52" width="380" height="26" as="geometry" />
        </mxCell>
        <mxCell id="AqpP7Q0JJ1Dxonw_0Czb-31" value="" style="line;strokeWidth=1;fillColor=none;align=left;verticalAlign=middle;spacingTop=-1;spacingLeft=3;spacingRight=3;rotatable=0;labelPosition=right;points=[];portConstraint=eastwest;strokeColor=inherit;" parent="AqpP7Q0JJ1Dxonw_0Czb-29" vertex="1">
          <mxGeometry y="78" width="380" height="8" as="geometry" />
        </mxCell>
        <mxCell id="AqpP7Q0JJ1Dxonw_0Czb-32" value="&lt;div style=&quot;color: rgb(144, 164, 174); background-color: rgb(250, 250, 250); font-family: Menlo, Monaco, &amp;quot;Courier New&amp;quot;, monospace; font-weight: normal; font-size: 12px; line-height: 18px;&quot;&gt;&lt;div&gt;from&lt;span style=&quot;color: #90a4ae;&quot;&gt; &lt;/span&gt;&lt;span style=&quot;color: #e2931d;&quot;&gt;batteries&lt;/span&gt;&lt;span style=&quot;color: #39adb5;&quot;&gt;.&lt;/span&gt;&lt;span style=&quot;color: #e2931d;&quot;&gt;battery&lt;/span&gt;&lt;span style=&quot;color: #90a4ae;&quot;&gt; &lt;/span&gt;&lt;span style=&quot;color: #39adb5;font-style: italic;&quot;&gt;import&lt;/span&gt;&lt;span style=&quot;color: #90a4ae;&quot;&gt; &lt;/span&gt;&lt;span style=&quot;color: #e2931d;&quot;&gt;Battery&lt;/span&gt;&lt;/div&gt;&lt;br&gt;&lt;div&gt;&lt;span style=&quot;color: #9c3eda;&quot;&gt;class&lt;/span&gt;&lt;span style=&quot;color: #90a4ae;&quot;&gt; &lt;/span&gt;&lt;span style=&quot;color: #e2931d;&quot;&gt;NubbinBattery&lt;/span&gt;&lt;span style=&quot;color: #39adb5;&quot;&gt;(&lt;/span&gt;&lt;span style=&quot;color: #e2931d;&quot;&gt;Battery&lt;/span&gt;&lt;span style=&quot;color: #39adb5;&quot;&gt;):&lt;/span&gt;&lt;/div&gt;&lt;div&gt;&lt;span style=&quot;color: #90a4ae;&quot;&gt;    &lt;/span&gt;&lt;/div&gt;&lt;div&gt;&lt;span style=&quot;color: #90a4ae;&quot;&gt;    &lt;/span&gt;&lt;span style=&quot;color: #9c3eda;&quot;&gt;def&lt;/span&gt;&lt;span style=&quot;color: #90a4ae;&quot;&gt; &lt;/span&gt;&lt;span style=&quot;color: #6182b8;&quot;&gt;__init__&lt;/span&gt;&lt;span style=&quot;color: #39adb5;&quot;&gt;(&lt;/span&gt;&lt;span style=&quot;color: #e53935;font-style: italic;&quot;&gt;self&lt;/span&gt;&lt;span style=&quot;color: #39adb5;&quot;&gt;,&lt;/span&gt;&lt;span style=&quot;color: #90a4ae;&quot;&gt; &lt;/span&gt;&lt;span style=&quot;color: #90a4ae;font-style: italic;&quot;&gt;current_date&lt;/span&gt;&lt;span style=&quot;color: #39adb5;&quot;&gt;,&lt;/span&gt;&lt;span style=&quot;color: #90a4ae;&quot;&gt; &lt;/span&gt;&lt;span style=&quot;color: #90a4ae;font-style: italic;&quot;&gt;last_service_date&lt;/span&gt;&lt;span style=&quot;color: #39adb5;&quot;&gt;)&lt;/span&gt;&lt;span style=&quot;color: #90a4ae;&quot;&gt; &lt;/span&gt;&lt;span style=&quot;color: #39adb5;&quot;&gt;-&amp;gt;&lt;/span&gt;&lt;span style=&quot;color: #90a4ae;&quot;&gt; &lt;/span&gt;&lt;span style=&quot;color: #39adb5;&quot;&gt;None&lt;/span&gt;&lt;span style=&quot;color: #39adb5;&quot;&gt;:&lt;/span&gt;&lt;/div&gt;&lt;div&gt;&lt;span style=&quot;color: #90a4ae;&quot;&gt;        &lt;/span&gt;&lt;span style=&quot;color: #e53935;font-style: italic;&quot;&gt;self&lt;/span&gt;&lt;span style=&quot;color: #39adb5;&quot;&gt;.&lt;/span&gt;&lt;span style=&quot;color: #90a4ae;&quot;&gt;current_date&lt;/span&gt;&lt;span style=&quot;color: #90a4ae;&quot;&gt; &lt;/span&gt;&lt;span style=&quot;color: #39adb5;&quot;&gt;=&lt;/span&gt;&lt;span style=&quot;color: #90a4ae;&quot;&gt; &lt;/span&gt;&lt;span style=&quot;color: #90a4ae;font-style: italic;&quot;&gt;current_date&lt;/span&gt;&lt;/div&gt;&lt;div&gt;&lt;span style=&quot;color: #90a4ae;&quot;&gt;        &lt;/span&gt;&lt;span style=&quot;color: #e53935;font-style: italic;&quot;&gt;self&lt;/span&gt;&lt;span style=&quot;color: #39adb5;&quot;&gt;.&lt;/span&gt;&lt;span style=&quot;color: #90a4ae;&quot;&gt;last_service_date&lt;/span&gt;&lt;span style=&quot;color: #90a4ae;&quot;&gt; &lt;/span&gt;&lt;span style=&quot;color: #39adb5;&quot;&gt;=&lt;/span&gt;&lt;span style=&quot;color: #90a4ae;&quot;&gt; &lt;/span&gt;&lt;span style=&quot;color: #90a4ae;font-style: italic;&quot;&gt;last_service_date&lt;/span&gt;&lt;/div&gt;&lt;div&gt;&lt;span style=&quot;color: #90a4ae;&quot;&gt;    &lt;/span&gt;&lt;/div&gt;&lt;div&gt;&lt;span style=&quot;color: #90a4ae;&quot;&gt;    &lt;/span&gt;&lt;span style=&quot;color: #9c3eda;&quot;&gt;def&lt;/span&gt;&lt;span style=&quot;color: #90a4ae;&quot;&gt; &lt;/span&gt;&lt;span style=&quot;color: #6182b8;&quot;&gt;need_service&lt;/span&gt;&lt;span style=&quot;color: #39adb5;&quot;&gt;(&lt;/span&gt;&lt;span style=&quot;color: #e53935;font-style: italic;&quot;&gt;self&lt;/span&gt;&lt;span style=&quot;color: #39adb5;&quot;&gt;)&lt;/span&gt;&lt;span style=&quot;color: #90a4ae;&quot;&gt; &lt;/span&gt;&lt;span style=&quot;color: #39adb5;&quot;&gt;-&amp;gt;&lt;/span&gt;&lt;span style=&quot;color: #90a4ae;&quot;&gt; &lt;/span&gt;&lt;span style=&quot;color: #e2931d;&quot;&gt;bool&lt;/span&gt;&lt;span style=&quot;color: #39adb5;&quot;&gt;:&lt;/span&gt;&lt;/div&gt;&lt;div&gt;&lt;span style=&quot;color: #90a4ae;&quot;&gt;        &lt;/span&gt;&lt;span style=&quot;color: #90a4ae;&quot;&gt;service_threshold_date&lt;/span&gt;&lt;span style=&quot;color: #90a4ae;&quot;&gt; &lt;/span&gt;&lt;span style=&quot;color: #39adb5;&quot;&gt;=&lt;/span&gt;&lt;span style=&quot;color: #90a4ae;&quot;&gt; &lt;/span&gt;&lt;span style=&quot;color: #e2931d;&quot;&gt;utils&lt;/span&gt;&lt;span style=&quot;color: #39adb5;&quot;&gt;.&lt;/span&gt;&lt;span style=&quot;color: #6182b8;&quot;&gt;add_years_to_date&lt;/span&gt;&lt;span style=&quot;color: #39adb5;&quot;&gt;(&lt;/span&gt;&lt;span style=&quot;color: #e53935;font-style: italic;&quot;&gt;self&lt;/span&gt;&lt;span style=&quot;color: #39adb5;&quot;&gt;.&lt;/span&gt;&lt;span style=&quot;color: #90a4ae;&quot;&gt;last_service_date&lt;/span&gt;&lt;span style=&quot;color: #39adb5;&quot;&gt;,&lt;/span&gt;&lt;span style=&quot;color: #6182b8;&quot;&gt; &lt;/span&gt;&lt;span style=&quot;color: #f76d47;&quot;&gt;4&lt;/span&gt;&lt;span style=&quot;color: #39adb5;&quot;&gt;)&lt;/span&gt;&lt;/div&gt;&lt;div&gt;&lt;span style=&quot;color: #90a4ae;&quot;&gt;        &lt;/span&gt;&lt;/div&gt;&lt;div&gt;&lt;span style=&quot;color: #90a4ae;&quot;&gt;        &lt;/span&gt;&lt;span style=&quot;color: #39adb5;font-style: italic;&quot;&gt;return&lt;/span&gt;&lt;span style=&quot;color: #90a4ae;&quot;&gt; &lt;/span&gt;&lt;span style=&quot;color: #90a4ae;&quot;&gt;service_threshold_date&lt;/span&gt;&lt;span style=&quot;color: #90a4ae;&quot;&gt; &lt;/span&gt;&lt;span style=&quot;color: #39adb5;&quot;&gt;&amp;lt;&lt;/span&gt;&lt;span style=&quot;color: #90a4ae;&quot;&gt; &lt;/span&gt;&lt;span style=&quot;color: #e53935;font-style: italic;&quot;&gt;self&lt;/span&gt;&lt;span style=&quot;color: #39adb5;&quot;&gt;.&lt;/span&gt;&lt;span style=&quot;color: #90a4ae;&quot;&gt;current_date&lt;/span&gt;&lt;/div&gt;&lt;/div&gt;" style="text;strokeColor=none;fillColor=none;align=left;verticalAlign=top;spacingLeft=4;spacingRight=4;overflow=hidden;rotatable=0;points=[[0,0.5],[1,0.5]];portConstraint=eastwest;whiteSpace=wrap;html=1;" parent="AqpP7Q0JJ1Dxonw_0Czb-29" vertex="1">
          <mxGeometry y="86" width="380" height="204" as="geometry" />
        </mxCell>
        <mxCell id="AqpP7Q0JJ1Dxonw_0Czb-42" style="edgeStyle=orthogonalEdgeStyle;rounded=0;orthogonalLoop=1;jettySize=auto;html=1;entryX=1;entryY=0.75;entryDx=0;entryDy=0;endArrow=block;endFill=0;jumpSize=12;startSize=6;endSize=12;" parent="WIyWlLk6GJQsqaUBKTNV-1" source="AqpP7Q0JJ1Dxonw_0Czb-34" target="AqpP7Q0JJ1Dxonw_0Czb-20" edge="1">
          <mxGeometry relative="1" as="geometry" />
        </mxCell>
        <mxCell id="AqpP7Q0JJ1Dxonw_0Czb-34" value="NubbinBattery" style="swimlane;fontStyle=1;align=center;verticalAlign=top;childLayout=stackLayout;horizontal=1;startSize=26;horizontalStack=0;resizeParent=1;resizeParentMax=0;resizeLast=0;collapsible=1;marginBottom=0;whiteSpace=wrap;html=1;" parent="WIyWlLk6GJQsqaUBKTNV-1" vertex="1">
          <mxGeometry x="1400" y="330" width="380" height="300" as="geometry" />
        </mxCell>
        <mxCell id="AqpP7Q0JJ1Dxonw_0Czb-35" value="current_date&lt;span style=&quot;color: #39adb5;&quot;&gt;&lt;/span&gt;" style="text;strokeColor=none;fillColor=none;align=left;verticalAlign=top;spacingLeft=4;spacingRight=4;overflow=hidden;rotatable=0;points=[[0,0.5],[1,0.5]];portConstraint=eastwest;whiteSpace=wrap;html=1;" parent="AqpP7Q0JJ1Dxonw_0Czb-34" vertex="1">
          <mxGeometry y="26" width="380" height="26" as="geometry" />
        </mxCell>
        <mxCell id="AqpP7Q0JJ1Dxonw_0Czb-36" value="last_service_date" style="text;strokeColor=none;fillColor=none;align=left;verticalAlign=top;spacingLeft=4;spacingRight=4;overflow=hidden;rotatable=0;points=[[0,0.5],[1,0.5]];portConstraint=eastwest;whiteSpace=wrap;html=1;" parent="AqpP7Q0JJ1Dxonw_0Czb-34" vertex="1">
          <mxGeometry y="52" width="380" height="26" as="geometry" />
        </mxCell>
        <mxCell id="AqpP7Q0JJ1Dxonw_0Czb-37" value="" style="line;strokeWidth=1;fillColor=none;align=left;verticalAlign=middle;spacingTop=-1;spacingLeft=3;spacingRight=3;rotatable=0;labelPosition=right;points=[];portConstraint=eastwest;strokeColor=inherit;" parent="AqpP7Q0JJ1Dxonw_0Czb-34" vertex="1">
          <mxGeometry y="78" width="380" height="8" as="geometry" />
        </mxCell>
        <mxCell id="AqpP7Q0JJ1Dxonw_0Czb-38" value="&lt;div style=&quot;color: rgb(144, 164, 174); background-color: rgb(250, 250, 250); font-family: Menlo, Monaco, &amp;quot;Courier New&amp;quot;, monospace; font-weight: normal; font-size: 12px; line-height: 18px;&quot;&gt;&lt;div&gt;from&lt;span style=&quot;color: #90a4ae;&quot;&gt; &lt;/span&gt;&lt;span style=&quot;color: #e2931d;&quot;&gt;batteries&lt;/span&gt;&lt;span style=&quot;color: #39adb5;&quot;&gt;.&lt;/span&gt;&lt;span style=&quot;color: #e2931d;&quot;&gt;battery&lt;/span&gt;&lt;span style=&quot;color: #90a4ae;&quot;&gt; &lt;/span&gt;&lt;span style=&quot;color: #39adb5;font-style: italic;&quot;&gt;import&lt;/span&gt;&lt;span style=&quot;color: #90a4ae;&quot;&gt; &lt;/span&gt;&lt;span style=&quot;color: #e2931d;&quot;&gt;Battery&lt;/span&gt;&lt;/div&gt;&lt;br&gt;&lt;div&gt;&lt;span style=&quot;color: #9c3eda;&quot;&gt;class&lt;/span&gt;&lt;span style=&quot;color: #90a4ae;&quot;&gt; &lt;/span&gt;&lt;span style=&quot;color: #e2931d;&quot;&gt;SpindlerBattery&lt;/span&gt;&lt;span style=&quot;color: #39adb5;&quot;&gt;(&lt;/span&gt;&lt;span style=&quot;color: #e2931d;&quot;&gt;Battery&lt;/span&gt;&lt;span style=&quot;color: #39adb5;&quot;&gt;):&lt;/span&gt;&lt;/div&gt;&lt;div&gt;&lt;span style=&quot;color: #90a4ae;&quot;&gt;    &lt;/span&gt;&lt;/div&gt;&lt;div&gt;&lt;span style=&quot;color: #90a4ae;&quot;&gt;    &lt;/span&gt;&lt;span style=&quot;color: #9c3eda;&quot;&gt;def&lt;/span&gt;&lt;span style=&quot;color: #90a4ae;&quot;&gt; &lt;/span&gt;&lt;span style=&quot;color: #6182b8;&quot;&gt;__init__&lt;/span&gt;&lt;span style=&quot;color: #39adb5;&quot;&gt;(&lt;/span&gt;&lt;span style=&quot;color: #e53935;font-style: italic;&quot;&gt;self&lt;/span&gt;&lt;span style=&quot;color: #39adb5;&quot;&gt;,&lt;/span&gt;&lt;span style=&quot;color: #90a4ae;&quot;&gt; &lt;/span&gt;&lt;span style=&quot;color: #90a4ae;font-style: italic;&quot;&gt;current_date&lt;/span&gt;&lt;span style=&quot;color: #39adb5;&quot;&gt;,&lt;/span&gt;&lt;span style=&quot;color: #90a4ae;&quot;&gt; &lt;/span&gt;&lt;span style=&quot;color: #90a4ae;font-style: italic;&quot;&gt;last_service_date&lt;/span&gt;&lt;span style=&quot;color: #39adb5;&quot;&gt;)&lt;/span&gt;&lt;span style=&quot;color: #90a4ae;&quot;&gt; &lt;/span&gt;&lt;span style=&quot;color: #39adb5;&quot;&gt;-&amp;gt;&lt;/span&gt;&lt;span style=&quot;color: #90a4ae;&quot;&gt; &lt;/span&gt;&lt;span style=&quot;color: #39adb5;&quot;&gt;None&lt;/span&gt;&lt;span style=&quot;color: #39adb5;&quot;&gt;:&lt;/span&gt;&lt;/div&gt;&lt;div&gt;&lt;span style=&quot;color: #90a4ae;&quot;&gt;        &lt;/span&gt;&lt;span style=&quot;color: #e53935;font-style: italic;&quot;&gt;self&lt;/span&gt;&lt;span style=&quot;color: #39adb5;&quot;&gt;.&lt;/span&gt;&lt;span style=&quot;color: #90a4ae;&quot;&gt;current_date&lt;/span&gt;&lt;span style=&quot;color: #90a4ae;&quot;&gt; &lt;/span&gt;&lt;span style=&quot;color: #39adb5;&quot;&gt;=&lt;/span&gt;&lt;span style=&quot;color: #90a4ae;&quot;&gt; &lt;/span&gt;&lt;span style=&quot;color: #90a4ae;font-style: italic;&quot;&gt;current_date&lt;/span&gt;&lt;/div&gt;&lt;div&gt;&lt;span style=&quot;color: #90a4ae;&quot;&gt;        &lt;/span&gt;&lt;span style=&quot;color: #e53935;font-style: italic;&quot;&gt;self&lt;/span&gt;&lt;span style=&quot;color: #39adb5;&quot;&gt;.&lt;/span&gt;&lt;span style=&quot;color: #90a4ae;&quot;&gt;last_service_date&lt;/span&gt;&lt;span style=&quot;color: #90a4ae;&quot;&gt; &lt;/span&gt;&lt;span style=&quot;color: #39adb5;&quot;&gt;=&lt;/span&gt;&lt;span style=&quot;color: #90a4ae;&quot;&gt; &lt;/span&gt;&lt;span style=&quot;color: #90a4ae;font-style: italic;&quot;&gt;last_service_date&lt;/span&gt;&lt;/div&gt;&lt;div&gt;&lt;span style=&quot;color: #90a4ae;&quot;&gt;    &lt;/span&gt;&lt;/div&gt;&lt;div&gt;&lt;span style=&quot;color: #90a4ae;&quot;&gt;    &lt;/span&gt;&lt;span style=&quot;color: #9c3eda;&quot;&gt;def&lt;/span&gt;&lt;span style=&quot;color: #90a4ae;&quot;&gt; &lt;/span&gt;&lt;span style=&quot;color: #6182b8;&quot;&gt;need_service&lt;/span&gt;&lt;span style=&quot;color: #39adb5;&quot;&gt;(&lt;/span&gt;&lt;span style=&quot;color: #e53935;font-style: italic;&quot;&gt;self&lt;/span&gt;&lt;span style=&quot;color: #39adb5;&quot;&gt;)&lt;/span&gt;&lt;span style=&quot;color: #90a4ae;&quot;&gt; &lt;/span&gt;&lt;span style=&quot;color: #39adb5;&quot;&gt;-&amp;gt;&lt;/span&gt;&lt;span style=&quot;color: #90a4ae;&quot;&gt; &lt;/span&gt;&lt;span style=&quot;color: #e2931d;&quot;&gt;bool&lt;/span&gt;&lt;span style=&quot;color: #39adb5;&quot;&gt;:&lt;/span&gt;&lt;/div&gt;&lt;div&gt;&lt;span style=&quot;color: #90a4ae;&quot;&gt;        &lt;/span&gt;&lt;span style=&quot;color: #90a4ae;&quot;&gt;service_threshold_date&lt;/span&gt;&lt;span style=&quot;color: #90a4ae;&quot;&gt; &lt;/span&gt;&lt;span style=&quot;color: #39adb5;&quot;&gt;=&lt;/span&gt;&lt;span style=&quot;color: #90a4ae;&quot;&gt; &lt;/span&gt;&lt;span style=&quot;color: #e2931d;&quot;&gt;utils&lt;/span&gt;&lt;span style=&quot;color: #39adb5;&quot;&gt;.&lt;/span&gt;&lt;span style=&quot;color: #6182b8;&quot;&gt;add_years_to_date&lt;/span&gt;&lt;span style=&quot;color: #39adb5;&quot;&gt;(&lt;/span&gt;&lt;span style=&quot;color: #e53935;font-style: italic;&quot;&gt;self&lt;/span&gt;&lt;span style=&quot;color: #39adb5;&quot;&gt;.&lt;/span&gt;&lt;span style=&quot;color: #90a4ae;&quot;&gt;last_service_date&lt;/span&gt;&lt;span style=&quot;color: #39adb5;&quot;&gt;,&lt;/span&gt;&lt;span style=&quot;color: #6182b8;&quot;&gt; &lt;/span&gt;&lt;span style=&quot;color: #f76d47;&quot;&gt;2&lt;/span&gt;&lt;span style=&quot;color: #39adb5;&quot;&gt;)&lt;/span&gt;&lt;/div&gt;&lt;div&gt;&lt;span style=&quot;color: #90a4ae;&quot;&gt;        &lt;/span&gt;&lt;/div&gt;&lt;div&gt;&lt;span style=&quot;color: #90a4ae;&quot;&gt;        &lt;/span&gt;&lt;span style=&quot;color: #39adb5;font-style: italic;&quot;&gt;return&lt;/span&gt;&lt;span style=&quot;color: #90a4ae;&quot;&gt; &lt;/span&gt;&lt;span style=&quot;color: #90a4ae;&quot;&gt;service_threshold_date&lt;/span&gt;&lt;span style=&quot;color: #90a4ae;&quot;&gt; &lt;/span&gt;&lt;span style=&quot;color: #39adb5;&quot;&gt;&amp;lt;&lt;/span&gt;&lt;span style=&quot;color: #90a4ae;&quot;&gt; &lt;/span&gt;&lt;span style=&quot;color: #e53935;font-style: italic;&quot;&gt;self&lt;/span&gt;&lt;span style=&quot;color: #39adb5;&quot;&gt;.&lt;/span&gt;&lt;span style=&quot;color: #90a4ae;&quot;&gt;current_date&lt;/span&gt;&lt;/div&gt;&lt;/div&gt;" style="text;strokeColor=none;fillColor=none;align=left;verticalAlign=top;spacingLeft=4;spacingRight=4;overflow=hidden;rotatable=0;points=[[0,0.5],[1,0.5]];portConstraint=eastwest;whiteSpace=wrap;html=1;" parent="AqpP7Q0JJ1Dxonw_0Czb-34" vertex="1">
          <mxGeometry y="86" width="380" height="214" as="geometry" />
        </mxCell>
        <mxCell id="AqpP7Q0JJ1Dxonw_0Czb-0" value="&lt;p style=&quot;margin:0px;margin-top:4px;text-align:center;&quot;&gt;&lt;i&gt;&amp;lt;&amp;lt;Interface&amp;gt;&amp;gt;&lt;/i&gt;&lt;/p&gt;&lt;p style=&quot;margin:0px;margin-top:4px;text-align:center;&quot;&gt;&lt;b&gt;CarService&lt;/b&gt;&lt;br&gt;&lt;b&gt;&lt;/b&gt;&lt;/p&gt;&lt;hr size=&quot;1&quot;&gt;&lt;hr size=&quot;1&quot;&gt;&lt;p style=&quot;margin:0px;margin-left:4px;&quot;&gt;+ need_service(self)&lt;/p&gt;&lt;p style=&quot;margin:0px;margin-left:4px;&quot;&gt;&lt;br&gt;&lt;/p&gt;&lt;div style=&quot;color: rgb(144, 164, 174); background-color: rgb(250, 250, 250); font-family: Menlo, Monaco, &amp;quot;Courier New&amp;quot;, monospace; font-weight: normal; font-size: 12px; line-height: 18px;&quot;&gt;&lt;div&gt;from &lt;span style=&quot;color: #e2931d;&quot;&gt;abc&lt;/span&gt;&lt;span style=&quot;color: #90a4ae;&quot;&gt; &lt;/span&gt;&lt;span style=&quot;color: #39adb5;font-style: italic;&quot;&gt;import&lt;/span&gt;&lt;span style=&quot;color: #90a4ae;&quot;&gt; &lt;/span&gt;&lt;span style=&quot;color: #e2931d;&quot;&gt;ABC&lt;/span&gt;&lt;span style=&quot;color: #39adb5;&quot;&gt;,&lt;/span&gt;&lt;span style=&quot;color: #90a4ae;&quot;&gt; &lt;/span&gt;&lt;span style=&quot;color: #6182b8;&quot;&gt;abstractmethod&lt;/span&gt;&lt;/div&gt;&lt;br&gt;&lt;br&gt;&lt;div&gt;&lt;span style=&quot;color: #9c3eda;&quot;&gt;class&lt;/span&gt;&lt;span style=&quot;color: #90a4ae;&quot;&gt; &lt;/span&gt;&lt;span style=&quot;color: #e2931d;&quot;&gt;CarService&lt;/span&gt;&lt;span style=&quot;color: #39adb5;&quot;&gt;(&lt;/span&gt;&lt;span style=&quot;color: #e2931d;&quot;&gt;ABC&lt;/span&gt;&lt;span style=&quot;color: #39adb5;&quot;&gt;):&lt;/span&gt;&lt;/div&gt;&lt;div&gt;&lt;span style=&quot;color: #90a4ae;&quot;&gt;    &lt;/span&gt;&lt;span style=&quot;color: #39adb5;&quot;&gt;@&lt;/span&gt;&lt;span style=&quot;color: #6182b8;&quot;&gt;abstractmethod&lt;/span&gt;&lt;/div&gt;&lt;div&gt;&lt;span style=&quot;color: #90a4ae;&quot;&gt;    &lt;/span&gt;&lt;span style=&quot;color: #9c3eda;&quot;&gt;def&lt;/span&gt;&lt;span style=&quot;color: #90a4ae;&quot;&gt; &lt;/span&gt;&lt;span style=&quot;color: #6182b8;&quot;&gt;need_service&lt;/span&gt;&lt;span style=&quot;color: #39adb5;&quot;&gt;(&lt;/span&gt;&lt;span style=&quot;color: #e53935;font-style: italic;&quot;&gt;self&lt;/span&gt;&lt;span style=&quot;color: #39adb5;&quot;&gt;):&lt;/span&gt;&lt;/div&gt;&lt;div&gt;&lt;span style=&quot;color: #90a4ae;&quot;&gt;        &lt;/span&gt;&lt;span style=&quot;color: #39adb5;font-style: italic;&quot;&gt;pass&lt;/span&gt;&lt;/div&gt;&lt;/div&gt;&lt;p style=&quot;margin:0px;margin-left:4px;&quot;&gt;&lt;/p&gt;&lt;p style=&quot;margin:0px;margin-left:4px;&quot;&gt;&lt;/p&gt;" style="verticalAlign=top;align=left;overflow=fill;fontSize=12;fontFamily=Helvetica;html=1;whiteSpace=wrap;fillColor=default;strokeWidth=2;" parent="WIyWlLk6GJQsqaUBKTNV-1" vertex="1">
          <mxGeometry x="600" y="280" width="260" height="220" as="geometry" />
        </mxCell>
        <mxCell id="AqpP7Q0JJ1Dxonw_0Czb-47" value="CapuletEngine" style="swimlane;fontStyle=1;align=center;verticalAlign=top;childLayout=stackLayout;horizontal=1;startSize=26;horizontalStack=0;resizeParent=1;resizeParentMax=0;resizeLast=0;collapsible=1;marginBottom=0;whiteSpace=wrap;html=1;" parent="WIyWlLk6GJQsqaUBKTNV-1" vertex="1">
          <mxGeometry x="1400" y="710" width="380" height="300" as="geometry" />
        </mxCell>
        <mxCell id="AqpP7Q0JJ1Dxonw_0Czb-48" value="current_mileage" style="text;strokeColor=none;fillColor=none;align=left;verticalAlign=top;spacingLeft=4;spacingRight=4;overflow=hidden;rotatable=0;points=[[0,0.5],[1,0.5]];portConstraint=eastwest;whiteSpace=wrap;html=1;" parent="AqpP7Q0JJ1Dxonw_0Czb-47" vertex="1">
          <mxGeometry y="26" width="380" height="26" as="geometry" />
        </mxCell>
        <mxCell id="AqpP7Q0JJ1Dxonw_0Czb-49" value="last_service_mileage&lt;span style=&quot;color: #39adb5;&quot;&gt;&lt;/span&gt;" style="text;strokeColor=none;fillColor=none;align=left;verticalAlign=top;spacingLeft=4;spacingRight=4;overflow=hidden;rotatable=0;points=[[0,0.5],[1,0.5]];portConstraint=eastwest;whiteSpace=wrap;html=1;" parent="AqpP7Q0JJ1Dxonw_0Czb-47" vertex="1">
          <mxGeometry y="52" width="380" height="26" as="geometry" />
        </mxCell>
        <mxCell id="AqpP7Q0JJ1Dxonw_0Czb-50" value="" style="line;strokeWidth=1;fillColor=none;align=left;verticalAlign=middle;spacingTop=-1;spacingLeft=3;spacingRight=3;rotatable=0;labelPosition=right;points=[];portConstraint=eastwest;strokeColor=inherit;" parent="AqpP7Q0JJ1Dxonw_0Czb-47" vertex="1">
          <mxGeometry y="78" width="380" height="8" as="geometry" />
        </mxCell>
        <mxCell id="AqpP7Q0JJ1Dxonw_0Czb-51" value="&lt;div style=&quot;color: rgb(144, 164, 174); background-color: rgb(250, 250, 250); font-family: Menlo, Monaco, &amp;quot;Courier New&amp;quot;, monospace; font-weight: normal; font-size: 12px; line-height: 18px;&quot;&gt;&lt;div&gt;from&lt;span style=&quot;color: #90a4ae;&quot;&gt; &lt;/span&gt;&lt;span style=&quot;color: #e2931d;&quot;&gt;engines&lt;/span&gt;&lt;span style=&quot;color: #39adb5;&quot;&gt;.&lt;/span&gt;&lt;span style=&quot;color: #e2931d;&quot;&gt;engine&lt;/span&gt;&lt;span style=&quot;color: #90a4ae;&quot;&gt; &lt;/span&gt;&lt;span style=&quot;color: #39adb5;font-style: italic;&quot;&gt;import&lt;/span&gt;&lt;span style=&quot;color: #90a4ae;&quot;&gt; &lt;/span&gt;&lt;span style=&quot;color: #e2931d;&quot;&gt;Engine&lt;/span&gt;&lt;/div&gt;&lt;div&gt;&lt;span style=&quot;color: #e2931d;&quot;&gt;&lt;br&gt;&lt;/span&gt;&lt;/div&gt;&lt;div&gt;&lt;span style=&quot;color: #9c3eda;&quot;&gt;class&lt;/span&gt;&lt;span style=&quot;color: #90a4ae;&quot;&gt; &lt;/span&gt;&lt;span style=&quot;color: #e2931d;&quot;&gt;CapuletEngine&lt;/span&gt;&lt;span style=&quot;color: #39adb5;&quot;&gt;(&lt;/span&gt;&lt;span style=&quot;color: #e2931d;&quot;&gt;Engine&lt;/span&gt;&lt;span style=&quot;color: #39adb5;&quot;&gt;):&lt;/span&gt;&lt;/div&gt;&lt;div&gt;&lt;span style=&quot;color: #90a4ae;&quot;&gt;    &lt;/span&gt;&lt;span style=&quot;color: #9c3eda;&quot;&gt;def&lt;/span&gt;&lt;span style=&quot;color: #90a4ae;&quot;&gt; &lt;/span&gt;&lt;span style=&quot;color: #6182b8;&quot;&gt;__init__&lt;/span&gt;&lt;span style=&quot;color: #39adb5;&quot;&gt;(&lt;/span&gt;&lt;span style=&quot;color: #e53935;font-style: italic;&quot;&gt;self&lt;/span&gt;&lt;span style=&quot;color: #39adb5;&quot;&gt;,&lt;/span&gt;&lt;span style=&quot;color: #90a4ae;&quot;&gt; &lt;/span&gt;&lt;span style=&quot;color: #90a4ae;font-style: italic;&quot;&gt;current_mileage&lt;/span&gt;&lt;span style=&quot;color: #39adb5;&quot;&gt;:&lt;/span&gt;&lt;span style=&quot;color: #90a4ae;&quot;&gt; &lt;/span&gt;&lt;span style=&quot;color: #e2931d;&quot;&gt;int&lt;/span&gt;&lt;span style=&quot;color: #39adb5;&quot;&gt;,&lt;/span&gt;&lt;span style=&quot;color: #90a4ae;&quot;&gt; &lt;/span&gt;&lt;span style=&quot;color: #90a4ae;font-style: italic;&quot;&gt;last_service_mileage&lt;/span&gt;&lt;span style=&quot;color: #39adb5;&quot;&gt;:&lt;/span&gt;&lt;span style=&quot;color: #90a4ae;&quot;&gt; &lt;/span&gt;&lt;span style=&quot;color: #e2931d;&quot;&gt;int&lt;/span&gt;&lt;span style=&quot;color: #39adb5;&quot;&gt;)&lt;/span&gt;&lt;span style=&quot;color: #90a4ae;&quot;&gt; &lt;/span&gt;&lt;span style=&quot;color: #39adb5;&quot;&gt;-&amp;gt;&lt;/span&gt;&lt;span style=&quot;color: #90a4ae;&quot;&gt; &lt;/span&gt;&lt;span style=&quot;color: #39adb5;&quot;&gt;None&lt;/span&gt;&lt;span style=&quot;color: #39adb5;&quot;&gt;:&lt;/span&gt;&lt;/div&gt;&lt;div&gt;&lt;span style=&quot;color: #90a4ae;&quot;&gt;        &lt;/span&gt;&lt;span style=&quot;color: #e53935;font-style: italic;&quot;&gt;self&lt;/span&gt;&lt;span style=&quot;color: #39adb5;&quot;&gt;.&lt;/span&gt;&lt;span style=&quot;color: #90a4ae;&quot;&gt;current_mileage&lt;/span&gt;&lt;span style=&quot;color: #90a4ae;&quot;&gt; &lt;/span&gt;&lt;span style=&quot;color: #39adb5;&quot;&gt;=&lt;/span&gt;&lt;span style=&quot;color: #90a4ae;&quot;&gt; &lt;/span&gt;&lt;span style=&quot;color: #90a4ae;font-style: italic;&quot;&gt;current_mileage&lt;/span&gt;&lt;/div&gt;&lt;div&gt;&lt;span style=&quot;color: #90a4ae;&quot;&gt;        &lt;/span&gt;&lt;span style=&quot;color: #e53935;font-style: italic;&quot;&gt;self&lt;/span&gt;&lt;span style=&quot;color: #39adb5;&quot;&gt;.&lt;/span&gt;&lt;span style=&quot;color: #90a4ae;&quot;&gt;last_service_mileage&lt;/span&gt;&lt;span style=&quot;color: #90a4ae;&quot;&gt; &lt;/span&gt;&lt;span style=&quot;color: #39adb5;&quot;&gt;=&lt;/span&gt;&lt;span style=&quot;color: #90a4ae;&quot;&gt; &lt;/span&gt;&lt;span style=&quot;color: #90a4ae;font-style: italic;&quot;&gt;last_service_mileage&lt;/span&gt;&lt;/div&gt;&lt;br&gt;&lt;div&gt;&lt;span style=&quot;color: #90a4ae;&quot;&gt;    &lt;/span&gt;&lt;span style=&quot;color: #9c3eda;&quot;&gt;def&lt;/span&gt;&lt;span style=&quot;color: #90a4ae;&quot;&gt; &lt;/span&gt;&lt;span style=&quot;color: #6182b8;&quot;&gt;need_service&lt;/span&gt;&lt;span style=&quot;color: #39adb5;&quot;&gt;(&lt;/span&gt;&lt;span style=&quot;color: #e53935;font-style: italic;&quot;&gt;self&lt;/span&gt;&lt;span style=&quot;color: #39adb5;&quot;&gt;):&lt;/span&gt;&lt;/div&gt;&lt;div&gt;&lt;span style=&quot;color: #90a4ae;&quot;&gt;        &lt;/span&gt;&lt;span style=&quot;color: #39adb5;font-style: italic;&quot;&gt;return&lt;/span&gt;&lt;span style=&quot;color: #90a4ae;&quot;&gt; &lt;/span&gt;&lt;span style=&quot;color: #e53935;font-style: italic;&quot;&gt;self&lt;/span&gt;&lt;span style=&quot;color: #39adb5;&quot;&gt;.&lt;/span&gt;&lt;span style=&quot;color: #90a4ae;&quot;&gt;current_mileage&lt;/span&gt;&lt;span style=&quot;color: #90a4ae;&quot;&gt; &lt;/span&gt;&lt;span style=&quot;color: #39adb5;&quot;&gt;-&lt;/span&gt;&lt;span style=&quot;color: #90a4ae;&quot;&gt; &lt;/span&gt;&lt;span style=&quot;color: #e53935;font-style: italic;&quot;&gt;self&lt;/span&gt;&lt;span style=&quot;color: #39adb5;&quot;&gt;.&lt;/span&gt;&lt;span style=&quot;color: #90a4ae;&quot;&gt;last_service_mileage&lt;/span&gt;&lt;span style=&quot;color: #90a4ae;&quot;&gt; &lt;/span&gt;&lt;span style=&quot;color: #39adb5;&quot;&gt;&amp;gt;&lt;/span&gt;&lt;span style=&quot;color: #90a4ae;&quot;&gt; &lt;/span&gt;&lt;span style=&quot;color: #f76d47;&quot;&gt;30000&lt;/span&gt;&lt;/div&gt;&lt;/div&gt;" style="text;strokeColor=none;fillColor=none;align=left;verticalAlign=top;spacingLeft=4;spacingRight=4;overflow=hidden;rotatable=0;points=[[0,0.5],[1,0.5]];portConstraint=eastwest;whiteSpace=wrap;html=1;" parent="AqpP7Q0JJ1Dxonw_0Czb-47" vertex="1">
          <mxGeometry y="86" width="380" height="214" as="geometry" />
        </mxCell>
        <mxCell id="AqpP7Q0JJ1Dxonw_0Czb-66" style="edgeStyle=orthogonalEdgeStyle;rounded=0;orthogonalLoop=1;jettySize=auto;html=1;endSize=12;endArrow=block;endFill=0;" parent="WIyWlLk6GJQsqaUBKTNV-1" source="AqpP7Q0JJ1Dxonw_0Czb-52" target="AqpP7Q0JJ1Dxonw_0Czb-24" edge="1">
          <mxGeometry relative="1" as="geometry" />
        </mxCell>
        <mxCell id="AqpP7Q0JJ1Dxonw_0Czb-52" value="SternmanEngine" style="swimlane;fontStyle=1;align=center;verticalAlign=top;childLayout=stackLayout;horizontal=1;startSize=26;horizontalStack=0;resizeParent=1;resizeParentMax=0;resizeLast=0;collapsible=1;marginBottom=0;whiteSpace=wrap;html=1;" parent="WIyWlLk6GJQsqaUBKTNV-1" vertex="1">
          <mxGeometry x="1400" y="1040" width="380" height="250" as="geometry" />
        </mxCell>
        <mxCell id="AqpP7Q0JJ1Dxonw_0Czb-53" value="current_mileage" style="text;strokeColor=none;fillColor=none;align=left;verticalAlign=top;spacingLeft=4;spacingRight=4;overflow=hidden;rotatable=0;points=[[0,0.5],[1,0.5]];portConstraint=eastwest;whiteSpace=wrap;html=1;" parent="AqpP7Q0JJ1Dxonw_0Czb-52" vertex="1">
          <mxGeometry y="26" width="380" height="26" as="geometry" />
        </mxCell>
        <mxCell id="AqpP7Q0JJ1Dxonw_0Czb-54" value="last_service_mileage&lt;span style=&quot;color: #39adb5;&quot;&gt;&lt;/span&gt;" style="text;strokeColor=none;fillColor=none;align=left;verticalAlign=top;spacingLeft=4;spacingRight=4;overflow=hidden;rotatable=0;points=[[0,0.5],[1,0.5]];portConstraint=eastwest;whiteSpace=wrap;html=1;" parent="AqpP7Q0JJ1Dxonw_0Czb-52" vertex="1">
          <mxGeometry y="52" width="380" height="26" as="geometry" />
        </mxCell>
        <mxCell id="AqpP7Q0JJ1Dxonw_0Czb-55" value="" style="line;strokeWidth=1;fillColor=none;align=left;verticalAlign=middle;spacingTop=-1;spacingLeft=3;spacingRight=3;rotatable=0;labelPosition=right;points=[];portConstraint=eastwest;strokeColor=inherit;" parent="AqpP7Q0JJ1Dxonw_0Czb-52" vertex="1">
          <mxGeometry y="78" width="380" height="8" as="geometry" />
        </mxCell>
        <mxCell id="AqpP7Q0JJ1Dxonw_0Czb-56" value="&lt;div style=&quot;color: rgb(144, 164, 174); background-color: rgb(250, 250, 250); font-family: Menlo, Monaco, &amp;quot;Courier New&amp;quot;, monospace; font-weight: normal; font-size: 12px; line-height: 18px;&quot;&gt;&lt;div&gt;from&lt;span style=&quot;color: #90a4ae;&quot;&gt; &lt;/span&gt;&lt;span style=&quot;color: #e2931d;&quot;&gt;engines&lt;/span&gt;&lt;span style=&quot;color: #39adb5;&quot;&gt;.&lt;/span&gt;&lt;span style=&quot;color: #e2931d;&quot;&gt;engine&lt;/span&gt;&lt;span style=&quot;color: #90a4ae;&quot;&gt; &lt;/span&gt;&lt;span style=&quot;color: #39adb5;font-style: italic;&quot;&gt;import&lt;/span&gt;&lt;span style=&quot;color: #90a4ae;&quot;&gt; &lt;/span&gt;&lt;span style=&quot;color: #e2931d;&quot;&gt;Engine&lt;/span&gt;&lt;/div&gt;&lt;br&gt;&lt;div&gt;&lt;span style=&quot;color: #9c3eda;&quot;&gt;class&lt;/span&gt;&lt;span style=&quot;color: #90a4ae;&quot;&gt; &lt;/span&gt;&lt;span style=&quot;color: #e2931d;&quot;&gt;SternmanEngine&lt;/span&gt;&lt;span style=&quot;color: #39adb5;&quot;&gt;(&lt;/span&gt;&lt;span style=&quot;color: #e2931d;&quot;&gt;Engine&lt;/span&gt;&lt;span style=&quot;color: #39adb5;&quot;&gt;):&lt;/span&gt;&lt;/div&gt;&lt;div&gt;&lt;span style=&quot;color: #90a4ae;&quot;&gt;    &lt;/span&gt;&lt;span style=&quot;color: #9c3eda;&quot;&gt;def&lt;/span&gt;&lt;span style=&quot;color: #90a4ae;&quot;&gt; &lt;/span&gt;&lt;span style=&quot;color: #6182b8;&quot;&gt;__init__&lt;/span&gt;&lt;span style=&quot;color: #39adb5;&quot;&gt;(&lt;/span&gt;&lt;span style=&quot;color: #e53935;font-style: italic;&quot;&gt;self&lt;/span&gt;&lt;span style=&quot;color: #39adb5;&quot;&gt;,&lt;/span&gt;&lt;span style=&quot;color: #90a4ae;&quot;&gt; &lt;/span&gt;&lt;span style=&quot;color: #90a4ae;font-style: italic;&quot;&gt;warning_light_on&lt;/span&gt;&lt;span style=&quot;color: #39adb5;&quot;&gt;:&lt;/span&gt;&lt;span style=&quot;color: #90a4ae;&quot;&gt; &lt;/span&gt;&lt;span style=&quot;color: #e2931d;&quot;&gt;bool&lt;/span&gt;&lt;span style=&quot;color: #39adb5;&quot;&gt;)&lt;/span&gt;&lt;span style=&quot;color: #90a4ae;&quot;&gt; &lt;/span&gt;&lt;span style=&quot;color: #39adb5;&quot;&gt;-&amp;gt;&lt;/span&gt;&lt;span style=&quot;color: #90a4ae;&quot;&gt; &lt;/span&gt;&lt;span style=&quot;color: #39adb5;&quot;&gt;None&lt;/span&gt;&lt;span style=&quot;color: #39adb5;&quot;&gt;:&lt;/span&gt;&lt;/div&gt;&lt;div&gt;&lt;span style=&quot;color: #90a4ae;&quot;&gt;        &lt;/span&gt;&lt;span style=&quot;color: #e53935;font-style: italic;&quot;&gt;self&lt;/span&gt;&lt;span style=&quot;color: #39adb5;&quot;&gt;.&lt;/span&gt;&lt;span style=&quot;color: #90a4ae;&quot;&gt;warning_light_on&lt;/span&gt;&lt;span style=&quot;color: #90a4ae;&quot;&gt; &lt;/span&gt;&lt;span style=&quot;color: #39adb5;&quot;&gt;=&lt;/span&gt;&lt;span style=&quot;color: #90a4ae;&quot;&gt; &lt;/span&gt;&lt;span style=&quot;color: #90a4ae;font-style: italic;&quot;&gt;warning_light_on&lt;/span&gt;&lt;/div&gt;&lt;br&gt;&lt;div&gt;&lt;span style=&quot;color: #90a4ae;&quot;&gt;    &lt;/span&gt;&lt;span style=&quot;color: #9c3eda;&quot;&gt;def&lt;/span&gt;&lt;span style=&quot;color: #90a4ae;&quot;&gt; &lt;/span&gt;&lt;span style=&quot;color: #6182b8;&quot;&gt;need_service&lt;/span&gt;&lt;span style=&quot;color: #39adb5;&quot;&gt;(&lt;/span&gt;&lt;span style=&quot;color: #e53935;font-style: italic;&quot;&gt;self&lt;/span&gt;&lt;span style=&quot;color: #39adb5;&quot;&gt;):&lt;/span&gt;&lt;/div&gt;&lt;div&gt;&lt;span style=&quot;color: #90a4ae;&quot;&gt;        &lt;/span&gt;&lt;span style=&quot;color: #39adb5;font-style: italic;&quot;&gt;return&lt;/span&gt;&lt;span style=&quot;color: #90a4ae;&quot;&gt; &lt;/span&gt;&lt;span style=&quot;color: #e53935;font-style: italic;&quot;&gt;self&lt;/span&gt;&lt;span style=&quot;color: #39adb5;&quot;&gt;.&lt;/span&gt;&lt;span style=&quot;color: #e53935;&quot;&gt;warning_light_is_on&lt;/span&gt;&lt;/div&gt;&lt;/div&gt;" style="text;strokeColor=none;fillColor=none;align=left;verticalAlign=top;spacingLeft=4;spacingRight=4;overflow=hidden;rotatable=0;points=[[0,0.5],[1,0.5]];portConstraint=eastwest;whiteSpace=wrap;html=1;" parent="AqpP7Q0JJ1Dxonw_0Czb-52" vertex="1">
          <mxGeometry y="86" width="380" height="164" as="geometry" />
        </mxCell>
        <mxCell id="AqpP7Q0JJ1Dxonw_0Czb-67" style="edgeStyle=orthogonalEdgeStyle;rounded=0;orthogonalLoop=1;jettySize=auto;html=1;endSize=12;endArrow=block;endFill=0;" parent="WIyWlLk6GJQsqaUBKTNV-1" source="AqpP7Q0JJ1Dxonw_0Czb-57" target="AqpP7Q0JJ1Dxonw_0Czb-24" edge="1">
          <mxGeometry relative="1" as="geometry" />
        </mxCell>
        <mxCell id="AqpP7Q0JJ1Dxonw_0Czb-57" value="xxxxEngine" style="swimlane;fontStyle=1;align=center;verticalAlign=top;childLayout=stackLayout;horizontal=1;startSize=26;horizontalStack=0;resizeParent=1;resizeParentMax=0;resizeLast=0;collapsible=1;marginBottom=0;whiteSpace=wrap;html=1;" parent="WIyWlLk6GJQsqaUBKTNV-1" vertex="1">
          <mxGeometry x="1400" y="1320" width="380" height="250" as="geometry" />
        </mxCell>
        <mxCell id="AqpP7Q0JJ1Dxonw_0Czb-58" value="..." style="text;strokeColor=none;fillColor=none;align=left;verticalAlign=top;spacingLeft=4;spacingRight=4;overflow=hidden;rotatable=0;points=[[0,0.5],[1,0.5]];portConstraint=eastwest;whiteSpace=wrap;html=1;" parent="AqpP7Q0JJ1Dxonw_0Czb-57" vertex="1">
          <mxGeometry y="26" width="380" height="26" as="geometry" />
        </mxCell>
        <mxCell id="AqpP7Q0JJ1Dxonw_0Czb-59" value="..." style="text;strokeColor=none;fillColor=none;align=left;verticalAlign=top;spacingLeft=4;spacingRight=4;overflow=hidden;rotatable=0;points=[[0,0.5],[1,0.5]];portConstraint=eastwest;whiteSpace=wrap;html=1;" parent="AqpP7Q0JJ1Dxonw_0Czb-57" vertex="1">
          <mxGeometry y="52" width="380" height="26" as="geometry" />
        </mxCell>
        <mxCell id="AqpP7Q0JJ1Dxonw_0Czb-60" value="" style="line;strokeWidth=1;fillColor=none;align=left;verticalAlign=middle;spacingTop=-1;spacingLeft=3;spacingRight=3;rotatable=0;labelPosition=right;points=[];portConstraint=eastwest;strokeColor=inherit;" parent="AqpP7Q0JJ1Dxonw_0Czb-57" vertex="1">
          <mxGeometry y="78" width="380" height="8" as="geometry" />
        </mxCell>
        <mxCell id="AqpP7Q0JJ1Dxonw_0Czb-61" value="&lt;div style=&quot;color: rgb(144, 164, 174); background-color: rgb(250, 250, 250); font-family: Menlo, Monaco, &amp;quot;Courier New&amp;quot;, monospace; font-weight: normal; font-size: 12px; line-height: 18px;&quot;&gt;&lt;div&gt;from&lt;span style=&quot;color: #90a4ae;&quot;&gt; &lt;/span&gt;&lt;span style=&quot;color: #e2931d;&quot;&gt;engines&lt;/span&gt;&lt;span style=&quot;color: #39adb5;&quot;&gt;.&lt;/span&gt;&lt;span style=&quot;color: #e2931d;&quot;&gt;engine&lt;/span&gt;&lt;span style=&quot;color: #90a4ae;&quot;&gt; &lt;/span&gt;&lt;span style=&quot;color: #39adb5;font-style: italic;&quot;&gt;import&lt;/span&gt;&lt;span style=&quot;color: #90a4ae;&quot;&gt; &lt;/span&gt;&lt;span style=&quot;color: #e2931d;&quot;&gt;Engine&lt;/span&gt;&lt;/div&gt;&lt;br&gt;&lt;div&gt;&lt;span style=&quot;color: #9c3eda;&quot;&gt;class&lt;/span&gt;&lt;span style=&quot;color: #90a4ae;&quot;&gt; &lt;/span&gt;&lt;span style=&quot;color: #e2931d;&quot;&gt;xxxxEngine&lt;/span&gt;&lt;span style=&quot;color: #39adb5;&quot;&gt;(&lt;/span&gt;&lt;span style=&quot;color: #e2931d;&quot;&gt;Engine&lt;/span&gt;&lt;span style=&quot;color: #39adb5;&quot;&gt;):&lt;/span&gt;&lt;/div&gt;&lt;div&gt;&lt;span style=&quot;color: #90a4ae;&quot;&gt;    &lt;/span&gt;&lt;span style=&quot;color: #9c3eda;&quot;&gt;def&lt;/span&gt;&lt;span style=&quot;color: #90a4ae;&quot;&gt; &lt;/span&gt;&lt;span style=&quot;color: #6182b8;&quot;&gt;__init__&lt;/span&gt;&lt;span style=&quot;color: #39adb5;&quot;&gt;(&lt;/span&gt;&lt;span style=&quot;color: #e53935;font-style: italic;&quot;&gt;self&lt;/span&gt;&lt;span style=&quot;color: #39adb5;&quot;&gt;,&lt;/span&gt;&lt;span style=&quot;color: #90a4ae;&quot;&gt; foo&lt;/span&gt;&lt;span style=&quot;color: #39adb5;&quot;&gt;)&lt;/span&gt;&lt;span style=&quot;color: #90a4ae;&quot;&gt; &lt;/span&gt;&lt;span style=&quot;color: #39adb5;&quot;&gt;-&amp;gt;&lt;/span&gt;&lt;span style=&quot;color: #90a4ae;&quot;&gt; &lt;/span&gt;&lt;span style=&quot;color: #39adb5;&quot;&gt;None&lt;/span&gt;&lt;span style=&quot;color: #39adb5;&quot;&gt;:&lt;/span&gt;&lt;/div&gt;&lt;div&gt;&lt;span style=&quot;color: #90a4ae;&quot;&gt;        &lt;/span&gt;&lt;span style=&quot;color: #e53935;font-style: italic;&quot;&gt;self&lt;/span&gt;&lt;span style=&quot;color: #39adb5;&quot;&gt;.foo&lt;/span&gt;&lt;span style=&quot;color: #90a4ae;&quot;&gt; &lt;/span&gt;&lt;span style=&quot;color: #39adb5;&quot;&gt;=&lt;/span&gt;&lt;span style=&quot;color: #90a4ae;&quot;&gt; foo&lt;/span&gt;&lt;/div&gt;&lt;br&gt;&lt;div&gt;&lt;span style=&quot;color: #90a4ae;&quot;&gt;    &lt;/span&gt;&lt;span style=&quot;color: #9c3eda;&quot;&gt;def&lt;/span&gt;&lt;span style=&quot;color: #90a4ae;&quot;&gt; &lt;/span&gt;&lt;span style=&quot;color: #6182b8;&quot;&gt;need_service&lt;/span&gt;&lt;span style=&quot;color: #39adb5;&quot;&gt;(&lt;/span&gt;&lt;span style=&quot;color: #e53935;font-style: italic;&quot;&gt;self&lt;/span&gt;&lt;span style=&quot;color: #39adb5;&quot;&gt;):&lt;/span&gt;&lt;/div&gt;&lt;div&gt;&lt;span style=&quot;color: #39adb5;&quot;&gt;...&lt;br&gt;&lt;/span&gt;&lt;/div&gt;&lt;div&gt;&lt;span style=&quot;color: #90a4ae;&quot;&gt;        &lt;/span&gt;&lt;span style=&quot;color: #39adb5;font-style: italic;&quot;&gt;return&lt;/span&gt;&lt;span style=&quot;color: #90a4ae;&quot;&gt; &lt;/span&gt;&lt;span style=&quot;color: #e53935;font-style: italic;&quot;&gt;self&lt;/span&gt;&lt;span style=&quot;color: #39adb5;&quot;&gt;.&lt;/span&gt;&lt;span style=&quot;color: #e53935;&quot;&gt;foo1&lt;/span&gt;&lt;/div&gt;&lt;/div&gt;" style="text;strokeColor=none;fillColor=none;align=left;verticalAlign=top;spacingLeft=4;spacingRight=4;overflow=hidden;rotatable=0;points=[[0,0.5],[1,0.5]];portConstraint=eastwest;whiteSpace=wrap;html=1;" parent="AqpP7Q0JJ1Dxonw_0Czb-57" vertex="1">
          <mxGeometry y="86" width="380" height="164" as="geometry" />
        </mxCell>
        <mxCell id="AqpP7Q0JJ1Dxonw_0Czb-64" style="edgeStyle=orthogonalEdgeStyle;rounded=0;orthogonalLoop=1;jettySize=auto;html=1;endSize=12;endArrow=block;endFill=0;" parent="WIyWlLk6GJQsqaUBKTNV-1" source="AqpP7Q0JJ1Dxonw_0Czb-51" target="AqpP7Q0JJ1Dxonw_0Czb-24" edge="1">
          <mxGeometry relative="1" as="geometry">
            <Array as="points">
              <mxPoint x="1290" y="903" />
            </Array>
          </mxGeometry>
        </mxCell>
        <mxCell id="AqpP7Q0JJ1Dxonw_0Czb-83" value="Utils" style="swimlane;fontStyle=1;align=center;verticalAlign=top;childLayout=stackLayout;horizontal=1;startSize=26;horizontalStack=0;resizeParent=1;resizeParentMax=0;resizeLast=0;collapsible=1;marginBottom=0;whiteSpace=wrap;html=1;fillColor=#f5f5f5;fontColor=#333333;strokeColor=#666666;" parent="WIyWlLk6GJQsqaUBKTNV-1" vertex="1">
          <mxGeometry x="1880" y="170" width="390" height="94" as="geometry" />
        </mxCell>
        <mxCell id="AqpP7Q0JJ1Dxonw_0Czb-85" value="" style="line;strokeWidth=1;fillColor=none;align=left;verticalAlign=middle;spacingTop=-1;spacingLeft=3;spacingRight=3;rotatable=0;labelPosition=right;points=[];portConstraint=eastwest;strokeColor=inherit;" parent="AqpP7Q0JJ1Dxonw_0Czb-83" vertex="1">
          <mxGeometry y="26" width="390" height="8" as="geometry" />
        </mxCell>
        <mxCell id="AqpP7Q0JJ1Dxonw_0Czb-86" value="&lt;div style=&quot;color: rgb(144, 164, 174); background-color: rgb(250, 250, 250); font-family: Menlo, Monaco, &amp;quot;Courier New&amp;quot;, monospace; font-weight: normal; font-size: 12px; line-height: 18px;&quot;&gt;&lt;div&gt;def&lt;span style=&quot;color: #90a4ae;&quot;&gt; &lt;/span&gt;&lt;span style=&quot;color: #6182b8;&quot;&gt;add_years_to_date&lt;/span&gt;&lt;span style=&quot;color: #39adb5;&quot;&gt;(&lt;/span&gt;&lt;span style=&quot;color: #90a4ae;font-style: italic;&quot;&gt;date&lt;/span&gt;&lt;span style=&quot;color: #39adb5;&quot;&gt;,&lt;/span&gt;&lt;span style=&quot;color: #90a4ae;&quot;&gt; &lt;/span&gt;&lt;span style=&quot;color: #90a4ae;font-style: italic;&quot;&gt;years_to_add&lt;/span&gt;&lt;span style=&quot;color: #39adb5;&quot;&gt;:&lt;/span&gt;&lt;span style=&quot;color: #e2931d;&quot;&gt;int&lt;/span&gt;&lt;span style=&quot;color: #39adb5;&quot;&gt;):&lt;/span&gt;&lt;/div&gt;&lt;div&gt;&lt;span style=&quot;color: #90a4ae;&quot;&gt;    &lt;/span&gt;&lt;span style=&quot;color: #90a4ae;&quot;&gt;result&lt;/span&gt;&lt;span style=&quot;color: #90a4ae;&quot;&gt; &lt;/span&gt;&lt;span style=&quot;color: #39adb5;&quot;&gt;=&lt;/span&gt;&lt;span style=&quot;color: #90a4ae;&quot;&gt; &lt;/span&gt;&lt;span style=&quot;color: #90a4ae;font-style: italic;&quot;&gt;date&lt;/span&gt;&lt;span style=&quot;color: #39adb5;&quot;&gt;.&lt;/span&gt;&lt;span style=&quot;color: #6182b8;&quot;&gt;replace&lt;/span&gt;&lt;span style=&quot;color: #39adb5;&quot;&gt;(&lt;/span&gt;&lt;span style=&quot;color: #90a4ae;font-style: italic;&quot;&gt;year&lt;/span&gt;&lt;span style=&quot;color: #39adb5;&quot;&gt;=&lt;/span&gt;&lt;span style=&quot;color: #90a4ae;font-style: italic;&quot;&gt;date&lt;/span&gt;&lt;span style=&quot;color: #39adb5;&quot;&gt;.&lt;/span&gt;&lt;span style=&quot;color: #e53935;&quot;&gt;year&lt;/span&gt;&lt;span style=&quot;color: #6182b8;&quot;&gt; &lt;/span&gt;&lt;span style=&quot;color: #39adb5;&quot;&gt;+&lt;/span&gt;&lt;span style=&quot;color: #6182b8;&quot;&gt; &lt;/span&gt;&lt;span style=&quot;color: #90a4ae;font-style: italic;&quot;&gt;years_to_add&lt;/span&gt;&lt;span style=&quot;color: #39adb5;&quot;&gt;)&lt;/span&gt;&lt;/div&gt;&lt;div&gt;&lt;span style=&quot;color: #90a4ae;&quot;&gt;    &lt;/span&gt;&lt;span style=&quot;color: #39adb5;font-style: italic;&quot;&gt;return&lt;/span&gt;&lt;span style=&quot;color: #90a4ae;&quot;&gt; &lt;/span&gt;&lt;span style=&quot;color: #90a4ae;&quot;&gt;result&lt;/span&gt;&lt;/div&gt;&lt;/div&gt;" style="text;strokeColor=none;fillColor=none;align=left;verticalAlign=top;spacingLeft=4;spacingRight=4;overflow=hidden;rotatable=0;points=[[0,0.5],[1,0.5]];portConstraint=eastwest;whiteSpace=wrap;html=1;" parent="AqpP7Q0JJ1Dxonw_0Czb-83" vertex="1">
          <mxGeometry y="34" width="390" height="60" as="geometry" />
        </mxCell>
        <mxCell id="AqpP7Q0JJ1Dxonw_0Czb-88" style="edgeStyle=orthogonalEdgeStyle;rounded=0;orthogonalLoop=1;jettySize=auto;html=1;entryX=1.003;entryY=0.543;entryDx=0;entryDy=0;entryPerimeter=0;dashed=1;endArrow=oval;endFill=0;" parent="WIyWlLk6GJQsqaUBKTNV-1" source="AqpP7Q0JJ1Dxonw_0Czb-86" target="AqpP7Q0JJ1Dxonw_0Czb-44" edge="1">
          <mxGeometry relative="1" as="geometry" />
        </mxCell>
        <mxCell id="BDwg48UCZf6vMLDt1JuL-2" value="" style="edgeStyle=orthogonalEdgeStyle;rounded=0;orthogonalLoop=1;jettySize=auto;html=1;entryX=1.01;entryY=0.117;entryDx=0;entryDy=0;exitX=0;exitY=0.5;exitDx=0;exitDy=0;endArrow=block;endFill=0;jumpSize=12;endSize=12;entryPerimeter=0;" edge="1" parent="WIyWlLk6GJQsqaUBKTNV-1" source="AqpP7Q0JJ1Dxonw_0Czb-32" target="AqpP7Q0JJ1Dxonw_0Czb-27">
          <mxGeometry relative="1" as="geometry">
            <mxPoint x="1400" y="208" as="sourcePoint" />
            <mxPoint x="1320" y="360" as="targetPoint" />
          </mxGeometry>
        </mxCell>
        <mxCell id="BDwg48UCZf6vMLDt1JuL-0" value="&lt;b&gt;Inheritance&lt;/b&gt;" style="text;html=1;strokeColor=none;fillColor=default;align=center;verticalAlign=middle;whiteSpace=wrap;rounded=0;" vertex="1" parent="WIyWlLk6GJQsqaUBKTNV-1">
          <mxGeometry x="1320" y="170" width="60" height="30" as="geometry" />
        </mxCell>
        <mxCell id="BDwg48UCZf6vMLDt1JuL-3" value="&lt;b&gt;Inheritance&lt;/b&gt;" style="text;html=1;strokeColor=none;fillColor=default;align=center;verticalAlign=middle;whiteSpace=wrap;rounded=0;" vertex="1" parent="WIyWlLk6GJQsqaUBKTNV-1">
          <mxGeometry x="1320" y="500" width="60" height="30" as="geometry" />
        </mxCell>
        <mxCell id="BDwg48UCZf6vMLDt1JuL-4" value="&lt;b&gt;Inheritance&lt;/b&gt;: A -&amp;gt; B A is a B" style="text;whiteSpace=wrap;html=1;" vertex="1" parent="WIyWlLk6GJQsqaUBKTNV-1">
          <mxGeometry x="1030" y="590" width="170" height="40" as="geometry" />
        </mxCell>
        <mxCell id="BDwg48UCZf6vMLDt1JuL-5" value="&lt;b&gt;Inheritance&lt;/b&gt;" style="text;html=1;strokeColor=none;fillColor=default;align=center;verticalAlign=middle;whiteSpace=wrap;rounded=0;" vertex="1" parent="WIyWlLk6GJQsqaUBKTNV-1">
          <mxGeometry x="1260" y="1130" width="60" height="30" as="geometry" />
        </mxCell>
        <mxCell id="BDwg48UCZf6vMLDt1JuL-7" value="&lt;b&gt;Aggregation: &lt;/b&gt;A has B, B can exist without A&lt;b&gt;&lt;br&gt;&lt;/b&gt;" style="text;html=1;strokeColor=none;fillColor=none;align=center;verticalAlign=middle;whiteSpace=wrap;rounded=0;" vertex="1" parent="WIyWlLk6GJQsqaUBKTNV-1">
          <mxGeometry x="280" y="650" width="200" height="30" as="geometry" />
        </mxCell>
      </root>
    </mxGraphModel>
  </diagram>
</mxfile>
